<?xml version="1.0" encoding="UTF-8"?>
<svg xmlns="http://www.w3.org/2000/svg" xmlns:xlink="http://www.w3.org/1999/xlink" width="80px" height="80px" viewBox="0 0 80 80" version="1.1">
<g id="surface1">
<path style=" stroke:none;fill-rule:nonzero;fill:rgb(92.54902%,72.156863%,36.862745%);fill-opacity:1;" d="M 78.75 78.75 L 66.390625 78.75 L 66.390625 1.25 L 78.75 1.25 Z M 78.75 78.75 "/>
<path style=" stroke:none;fill-rule:nonzero;fill:rgb(91.764706%,66.27451%,28.627451%);fill-opacity:1;" d="M 66.390625 75.9375 L 78.75 75.9375 L 78.75 78.75 L 66.390625 78.75 Z M 66.390625 75.9375 "/>
<path style=" stroke:none;fill-rule:nonzero;fill:rgb(96.470588%,87.843137%,50.196078%);fill-opacity:1;" d="M 66.390625 78.75 L 17.832031 78.75 C 16.945312 78.75 16.226562 78.03125 16.226562 77.144531 L 16.226562 1.25 L 66.390625 1.25 Z M 66.390625 78.75 "/>
<path style=" stroke:none;fill-rule:nonzero;fill:rgb(92.54902%,80.392157%,38.039216%);fill-opacity:1;" d="M 17.832031 78.75 L 66.390625 78.75 L 66.390625 75.9375 L 16.226562 75.9375 L 16.226562 77.144531 C 16.226562 78.03125 16.945312 78.75 17.832031 78.75 Z M 17.832031 78.75 "/>
<path style=" stroke:none;fill-rule:nonzero;fill:rgb(88.627451%,68.235294%,51.764706%);fill-opacity:1;" d="M 16.226562 26.503906 L 66.390625 26.503906 L 66.390625 55.464844 L 16.226562 55.464844 Z M 16.226562 26.503906 "/>
<path style=" stroke:none;fill-rule:nonzero;fill:rgb(84.313725%,63.921569%,47.45098%);fill-opacity:1;" d="M 16.226562 52.652344 L 66.390625 52.652344 L 66.390625 55.464844 L 16.226562 55.464844 Z M 16.226562 52.652344 "/>
<path style=" stroke:none;fill-rule:nonzero;fill:rgb(56.470588%,60.784314%,64.705882%);fill-opacity:1;" d="M 16.226562 72.738281 L 44.945312 72.738281 L 44.945312 77.144531 C 44.945312 78.03125 44.226562 78.75 43.339844 78.75 L 17.832031 78.75 C 16.945312 78.75 16.226562 78.03125 16.226562 77.144531 Z M 16.226562 72.738281 "/>
<path style=" stroke:none;fill-rule:nonzero;fill:rgb(50.196078%,54.509804%,58.431373%);fill-opacity:1;" d="M 43.339844 75.9375 L 17.832031 75.9375 C 16.945312 75.9375 16.226562 75.21875 16.226562 74.332031 L 16.226562 77.144531 C 16.226562 78.03125 16.945312 78.75 17.832031 78.75 L 43.339844 78.75 C 44.226562 78.75 44.945312 78.03125 44.945312 77.144531 L 44.945312 74.332031 C 44.945312 75.21875 44.226562 75.9375 43.339844 75.9375 Z M 43.339844 75.9375 "/>
<path style=" stroke:none;fill-rule:nonzero;fill:rgb(61.960784%,78.431373%,98.823529%);fill-opacity:1;" d="M 44.945312 72.738281 C 59.925781 65.542969 59.925781 48.386719 59.925781 48.386719 L 1.25 48.386719 C 1.25 48.386719 1.25 65.542969 16.226562 72.738281 Z M 44.945312 72.738281 "/>
<path style=" stroke:none;fill-rule:nonzero;fill:rgb(50.196078%,71.372549%,98.823529%);fill-opacity:1;" d="M 11.667969 69.925781 C 13.007812 70.964844 14.519531 71.917969 16.226562 72.738281 L 44.945312 72.738281 C 46.65625 71.917969 48.167969 70.964844 49.507812 69.925781 Z M 11.667969 69.925781 "/>
<path style=" stroke:none;fill-rule:nonzero;fill:rgb(86.27451%,28.627451%,33.333333%);fill-opacity:1;" d="M 56.304688 48.386719 C 56.421875 48.019531 56.484375 47.632812 56.484375 47.230469 C 56.484375 45.117188 54.773438 43.40625 52.660156 43.40625 C 50.550781 43.40625 48.839844 45.117188 48.839844 47.230469 C 48.839844 47.632812 48.902344 48.019531 49.019531 48.386719 Z M 56.304688 48.386719 "/>
<path style=" stroke:none;fill-rule:nonzero;fill:rgb(84.705882%,18.431373%,23.529412%);fill-opacity:1;" d="M 56.484375 47.230469 C 56.484375 46.636719 56.351562 46.074219 56.109375 45.574219 L 49.214844 45.574219 C 48.972656 46.074219 48.839844 46.636719 48.839844 47.230469 C 48.839844 47.632812 48.902344 48.019531 49.019531 48.386719 L 56.304688 48.386719 C 56.421875 48.019531 56.484375 47.632812 56.484375 47.230469 Z M 56.484375 47.230469 "/>
<path style=" stroke:none;fill-rule:nonzero;fill:rgb(70.196078%,89.803922%,62.352941%);fill-opacity:1;" d="M 40.851562 48.386719 C 41.070312 47.90625 41.195312 47.371094 41.195312 46.804688 C 41.195312 44.695312 39.480469 42.984375 37.371094 42.984375 C 35.261719 42.984375 33.546875 44.695312 33.546875 46.804688 C 33.546875 47.371094 33.671875 47.902344 33.890625 48.386719 Z M 40.851562 48.386719 "/>
<path style=" stroke:none;fill-rule:nonzero;fill:rgb(58.431373%,83.921569%,64.313725%);fill-opacity:1;" d="M 33.546875 46.804688 C 33.546875 47.371094 33.671875 47.902344 33.890625 48.386719 L 40.851562 48.386719 C 41.070312 47.90625 41.195312 47.371094 41.195312 46.804688 C 41.195312 46.375 41.121094 45.960938 40.988281 45.574219 L 33.753906 45.574219 C 33.621094 45.960938 33.546875 46.375 33.546875 46.804688 Z M 33.546875 46.804688 "/>
<path style=" stroke:none;fill-rule:nonzero;fill:rgb(96.470588%,87.843137%,50.196078%);fill-opacity:1;" d="M 22.035156 42.984375 C 22.058594 42.984375 22.085938 42.984375 22.109375 42.984375 C 24.097656 42.984375 25.730469 44.5 25.914062 46.4375 C 25.90625 46.339844 25.902344 46.242188 25.902344 46.144531 C 25.902344 44.175781 27.386719 42.558594 29.296875 42.34375 C 29.355469 42.078125 29.386719 41.804688 29.386719 41.519531 C 29.386719 39.40625 27.675781 37.695312 25.566406 37.695312 C 23.453125 37.695312 21.742188 39.40625 21.742188 41.519531 C 21.742188 42.039062 21.847656 42.53125 22.035156 42.984375 Z M 22.035156 42.984375 "/>
<path style=" stroke:none;fill-rule:nonzero;fill:rgb(92.54902%,80.392157%,38.039216%);fill-opacity:1;" d="M 29.296875 42.34375 C 29.355469 42.078125 29.386719 41.804688 29.386719 41.519531 C 29.386719 40.941406 29.257812 40.394531 29.03125 39.902344 C 26.507812 40.355469 25.566406 41.710938 25.566406 41.710938 C 24.640625 40.84375 23.210938 40.417969 21.976562 40.203125 C 21.824219 40.613281 21.742188 41.058594 21.742188 41.519531 C 21.742188 42.039062 21.847656 42.53125 22.035156 42.984375 C 22.058594 42.984375 22.085938 42.984375 22.109375 42.984375 C 24.097656 42.984375 25.730469 44.5 25.914062 46.4375 C 25.90625 46.339844 25.902344 46.242188 25.902344 46.144531 C 25.902344 44.175781 27.386719 42.558594 29.296875 42.34375 Z M 29.296875 42.34375 "/>
<path style=" stroke:none;fill-rule:nonzero;fill:rgb(96.470588%,87.843137%,50.196078%);fill-opacity:1;" d="M 48.660156 48.386719 C 48.777344 48.019531 48.839844 47.632812 48.839844 47.230469 C 48.839844 45.117188 47.128906 43.40625 45.015625 43.40625 C 42.90625 43.40625 41.195312 45.117188 41.195312 47.230469 C 41.195312 47.632812 41.257812 48.019531 41.371094 48.386719 Z M 48.660156 48.386719 "/>
<path style=" stroke:none;fill-rule:nonzero;fill:rgb(92.54902%,80.392157%,38.039216%);fill-opacity:1;" d="M 41.195312 47.230469 C 41.195312 47.632812 41.257812 48.019531 41.371094 48.386719 L 48.660156 48.386719 C 48.777344 48.019531 48.839844 47.632812 48.839844 47.230469 C 48.839844 46.636719 48.703125 46.074219 48.464844 45.574219 L 41.570312 45.574219 C 41.328125 46.074219 41.195312 46.636719 41.195312 47.230469 Z M 41.195312 47.230469 "/>
<path style=" stroke:none;fill-rule:nonzero;fill:rgb(86.27451%,28.627451%,33.333333%);fill-opacity:1;" d="M 11.496094 48.386719 L 16.777344 48.386719 C 17.695312 47.6875 18.289062 46.585938 18.289062 45.339844 C 18.289062 43.230469 16.574219 41.519531 14.464844 41.519531 C 12.75 41.519531 11.300781 42.648438 10.816406 44.199219 C 11.449219 44.882812 11.839844 45.796875 11.839844 46.804688 C 11.839844 47.371094 11.71875 47.90625 11.496094 48.386719 Z M 11.496094 48.386719 "/>
<path style=" stroke:none;fill-rule:nonzero;fill:rgb(84.705882%,18.431373%,23.529412%);fill-opacity:1;" d="M 11.636719 45.574219 C 11.769531 45.960938 11.839844 46.375 11.839844 46.804688 C 11.839844 47.371094 11.71875 47.902344 11.496094 48.386719 L 16.777344 48.386719 C 17.636719 47.730469 18.210938 46.722656 18.28125 45.574219 Z M 11.636719 45.574219 "/>
<path style=" stroke:none;fill-rule:nonzero;fill:rgb(96.470588%,87.843137%,50.196078%);fill-opacity:1;" d="M 11.496094 48.386719 C 11.71875 47.90625 11.839844 47.371094 11.839844 46.804688 C 11.839844 44.695312 10.128906 42.984375 8.015625 42.984375 C 5.90625 42.984375 4.195312 44.695312 4.195312 46.804688 C 4.195312 47.371094 4.316406 47.902344 4.535156 48.386719 Z M 11.496094 48.386719 "/>
<path style=" stroke:none;fill-rule:nonzero;fill:rgb(92.54902%,80.392157%,38.039216%);fill-opacity:1;" d="M 4.195312 46.804688 C 4.195312 47.371094 4.316406 47.902344 4.539062 48.386719 L 11.496094 48.386719 C 11.71875 47.90625 11.839844 47.371094 11.839844 46.804688 C 11.839844 46.375 11.769531 45.960938 11.636719 45.574219 L 4.398438 45.574219 C 4.265625 45.960938 4.195312 46.375 4.195312 46.804688 Z M 4.195312 46.804688 "/>
<path style=" stroke:none;fill-rule:nonzero;fill:rgb(86.27451%,28.627451%,33.333333%);fill-opacity:1;" d="M 32.820312 48.386719 C 33.277344 47.757812 33.546875 46.980469 33.546875 46.144531 C 33.546875 44.03125 31.835938 42.320312 29.726562 42.320312 C 27.613281 42.320312 25.902344 44.03125 25.902344 46.144531 C 25.902344 46.980469 26.171875 47.757812 26.628906 48.386719 Z M 32.820312 48.386719 "/>
<path style=" stroke:none;fill-rule:nonzero;fill:rgb(84.705882%,18.431373%,23.529412%);fill-opacity:1;" d="M 25.902344 46.144531 C 25.902344 46.980469 26.171875 47.757812 26.628906 48.386719 L 32.820312 48.386719 C 33.277344 47.757812 33.546875 46.980469 33.546875 46.144531 C 33.546875 45.949219 33.535156 45.761719 33.507812 45.574219 L 25.945312 45.574219 C 25.917969 45.761719 25.902344 45.949219 25.902344 46.144531 Z M 25.902344 46.144531 "/>
<path style=" stroke:none;fill-rule:nonzero;fill:rgb(70.196078%,89.803922%,62.352941%);fill-opacity:1;" d="M 25.589844 48.386719 C 25.808594 47.90625 25.933594 47.371094 25.933594 46.804688 C 25.933594 44.695312 24.222656 42.984375 22.109375 42.984375 C 20 42.984375 18.285156 44.695312 18.285156 46.804688 C 18.285156 47.371094 18.410156 47.902344 18.628906 48.386719 Z M 25.589844 48.386719 "/>
<path style=" stroke:none;fill-rule:nonzero;fill:rgb(58.431373%,83.921569%,64.313725%);fill-opacity:1;" d="M 18.289062 46.804688 C 18.289062 47.371094 18.410156 47.902344 18.628906 48.386719 L 25.589844 48.386719 C 25.808594 47.90625 25.933594 47.371094 25.933594 46.804688 C 25.933594 46.375 25.859375 45.960938 25.730469 45.574219 L 18.492188 45.574219 C 18.359375 45.960938 18.289062 46.375 18.289062 46.804688 Z M 18.289062 46.804688 "/>
<path style=" stroke:none;fill-rule:nonzero;fill:rgb(90.588235%,92.54902%,94.509804%);fill-opacity:1;" d="M 61.578125 21.878906 C 60.34375 20.644531 58.332031 20.671875 57.128906 21.941406 L 37.191406 42.988281 C 37.25 42.984375 37.3125 42.984375 37.371094 42.984375 C 39.109375 42.984375 40.574219 44.140625 41.039062 45.726562 L 61.519531 26.328125 C 62.789062 25.128906 62.816406 23.117188 61.578125 21.878906 Z M 61.578125 21.878906 "/>
<path style=" stroke:none;fill-rule:nonzero;fill:rgb(77.647059%,81.568627%,85.490196%);fill-opacity:1;" d="M 61.578125 21.878906 C 61.289062 21.589844 60.957031 21.371094 60.601562 21.222656 C 60.9375 22.3125 60.660156 23.546875 59.769531 24.386719 L 39.472656 43.613281 C 40.21875 44.105469 40.78125 44.851562 41.039062 45.726562 L 61.519531 26.328125 C 62.789062 25.128906 62.816406 23.117188 61.578125 21.878906 Z M 61.578125 21.878906 "/>
<path style=" stroke:none;fill-rule:nonzero;fill:rgb(0%,0%,0%);fill-opacity:1;" d="M 78.824219 41.0625 C 79.472656 41.0625 80 40.539062 80 39.890625 L 80 1.175781 C 80 0.527344 79.472656 0 78.824219 0 L 16.183594 0 C 15.535156 0 15.007812 0.527344 15.007812 1.175781 L 15.007812 40.382812 C 14.8125 40.359375 14.617188 40.347656 14.414062 40.347656 C 12.761719 40.347656 11.269531 41.140625 10.351562 42.425781 C 9.636719 42.035156 8.820312 41.8125 7.953125 41.8125 C 5.195312 41.8125 2.949219 44.058594 2.949219 46.820312 C 2.949219 46.957031 2.957031 47.09375 2.96875 47.226562 L 1.175781 47.226562 C 0.527344 47.226562 0 47.753906 0 48.402344 C 0 48.585938 0.0234375 52.964844 1.945312 58.296875 C 4.417969 65.148438 8.925781 70.398438 15.007812 73.527344 L 15.007812 77.21875 C 15.007812 78.753906 16.253906 80 17.789062 80 L 78.824219 80 C 79.472656 80 80 79.472656 80 78.824219 L 80 44.585938 C 80 43.9375 79.472656 43.414062 78.824219 43.414062 C 78.175781 43.414062 77.652344 43.9375 77.652344 44.585938 L 77.652344 77.652344 L 67.613281 77.652344 L 67.613281 2.347656 L 77.652344 2.347656 L 77.652344 39.890625 C 77.652344 40.539062 78.175781 41.0625 78.824219 41.0625 Z M 46.128906 77.21875 L 46.128906 73.527344 C 52.210938 70.398438 56.71875 65.148438 59.191406 58.296875 C 59.390625 57.742188 59.570312 57.199219 59.730469 56.671875 L 65.265625 56.671875 L 65.265625 77.652344 L 46.09375 77.652344 C 46.113281 77.511719 46.128906 77.367188 46.128906 77.21875 Z M 50.03125 47.226562 C 50.039062 45.769531 51.226562 44.585938 52.6875 44.585938 C 54.148438 44.585938 55.335938 45.769531 55.34375 47.226562 Z M 19.453125 47.226562 C 19.433594 47.09375 19.417969 46.957031 19.417969 46.820312 C 19.417969 45.355469 20.609375 44.164062 22.074219 44.164062 C 23.445312 44.164062 24.578125 45.207031 24.714844 46.539062 C 24.71875 46.546875 24.71875 46.558594 24.71875 46.566406 C 24.726562 46.648438 24.730469 46.734375 24.730469 46.820312 C 24.730469 46.957031 24.71875 47.09375 24.695312 47.226562 Z M 22.882812 41.523438 C 22.882812 40.058594 24.074219 38.867188 25.539062 38.867188 C 26.957031 38.867188 28.117188 39.984375 28.1875 41.386719 C 27.136719 41.722656 26.234375 42.398438 25.613281 43.28125 C 24.890625 42.5625 23.953125 42.058594 22.90625 41.882812 C 22.890625 41.765625 22.882812 41.644531 22.882812 41.523438 Z M 27.277344 47.226562 C 27.15625 46.957031 27.082031 46.667969 27.058594 46.371094 C 27.058594 46.367188 27.058594 46.363281 27.058594 46.359375 C 27.050781 46.292969 27.050781 46.222656 27.050781 46.15625 C 27.050781 44.691406 28.242188 43.5 29.707031 43.5 C 31.171875 43.5 32.363281 44.691406 32.363281 46.15625 C 32.363281 46.53125 32.28125 46.894531 32.132812 47.226562 Z M 34.746094 47.226562 C 34.722656 47.09375 34.710938 46.957031 34.710938 46.820312 C 34.710938 45.355469 35.902344 44.164062 37.367188 44.164062 C 38.832031 44.164062 40.023438 45.355469 40.023438 46.820312 C 40.023438 46.957031 40.007812 47.09375 39.988281 47.226562 Z M 58.015625 22.710938 C 58.726562 21.925781 60.054688 21.910156 60.789062 22.675781 C 61.558594 23.40625 61.539062 24.738281 60.753906 25.449219 L 41.363281 43.8125 C 40.875 43.160156 40.226562 42.632812 39.476562 42.28125 Z M 42.371094 47.226562 C 42.378906 45.769531 43.566406 44.585938 45.027344 44.585938 C 46.484375 44.585938 47.675781 45.769531 47.683594 47.226562 Z M 57.691406 47.226562 C 57.683594 44.476562 55.441406 42.238281 52.6875 42.238281 C 51.152344 42.238281 49.777344 42.933594 48.855469 44.027344 C 48.195312 43.242188 47.300781 42.660156 46.277344 42.394531 L 61.84375 27.652344 L 65.265625 27.652344 L 65.265625 54.324219 L 60.355469 54.324219 C 61.125 50.941406 61.136719 48.539062 61.136719 48.402344 C 61.136719 47.753906 60.613281 47.226562 59.964844 47.226562 Z M 17.355469 27.652344 L 36.609375 27.652344 C 37.257812 27.652344 37.785156 27.125 37.785156 26.476562 C 37.785156 25.828125 37.257812 25.300781 36.609375 25.300781 L 17.355469 25.300781 L 17.355469 2.347656 L 65.265625 2.347656 L 65.265625 25.304688 L 63.519531 25.304688 C 63.984375 23.8125 63.570312 22.109375 62.453125 21.011719 C 60.828125 19.320312 57.886719 19.355469 56.308594 21.097656 L 52.324219 25.300781 L 41.304688 25.300781 C 40.65625 25.300781 40.132812 25.828125 40.132812 26.476562 C 40.132812 27.125 40.65625 27.652344 41.304688 27.652344 L 50.101562 27.652344 L 36.636719 41.867188 C 35.539062 42.03125 34.558594 42.546875 33.8125 43.300781 C 33.058594 42.21875 31.886719 41.445312 30.53125 41.222656 C 30.375 38.601562 28.195312 36.515625 25.539062 36.515625 C 22.777344 36.515625 20.535156 38.761719 20.535156 41.523438 C 20.535156 41.699219 20.542969 41.875 20.5625 42.046875 C 19.921875 42.253906 19.335938 42.582031 18.835938 43.007812 C 18.476562 42.335938 17.96875 41.753906 17.355469 41.308594 Z M 14.414062 42.695312 C 15.878906 42.695312 17.070312 43.886719 17.070312 45.351562 C 17.070312 46.066406 16.789062 46.734375 16.292969 47.226562 L 12.941406 47.226562 C 12.953125 47.09375 12.960938 46.957031 12.960938 46.820312 C 12.960938 45.789062 12.644531 44.828125 12.109375 44.03125 C 12.574219 43.214844 13.441406 42.695312 14.414062 42.695312 Z M 5.300781 46.820312 C 5.300781 45.355469 6.492188 44.164062 7.953125 44.164062 C 9.417969 44.164062 10.609375 45.355469 10.609375 46.820312 C 10.609375 46.957031 10.601562 47.09375 10.578125 47.226562 L 5.332031 47.226562 C 5.308594 47.09375 5.300781 46.957031 5.300781 46.820312 Z M 17.355469 77.21875 L 17.355469 73.976562 L 24.597656 73.976562 C 25.246094 73.976562 25.769531 73.449219 25.769531 72.800781 C 25.769531 72.152344 25.246094 71.625 24.597656 71.625 L 16.453125 71.625 C 10.664062 68.773438 6.535156 64.046875 4.183594 57.574219 C 2.949219 54.1875 2.546875 51.164062 2.414062 49.578125 L 58.726562 49.578125 C 58.59375 51.164062 58.1875 54.1875 56.957031 57.574219 C 54.601562 64.046875 50.472656 68.773438 44.683594 71.625 L 29.292969 71.625 C 28.644531 71.625 28.121094 72.152344 28.121094 72.800781 C 28.121094 73.449219 28.644531 73.976562 29.292969 73.976562 L 43.78125 73.976562 L 43.78125 77.21875 C 43.78125 77.457031 43.585938 77.652344 43.347656 77.652344 L 17.789062 77.652344 C 17.550781 77.652344 17.355469 77.457031 17.355469 77.21875 Z M 17.355469 77.21875 "/>
<path style=" stroke:none;fill-rule:nonzero;fill:rgb(0%,0%,0%);fill-opacity:1;" d="M 74.328125 7.890625 L 70.9375 7.890625 C 70.289062 7.890625 69.761719 8.414062 69.761719 9.0625 C 69.761719 9.710938 70.289062 10.238281 70.9375 10.238281 L 74.328125 10.238281 C 74.976562 10.238281 75.503906 9.714844 75.503906 9.0625 C 75.503906 8.414062 74.976562 7.890625 74.328125 7.890625 Z M 74.328125 7.890625 "/>
<path style=" stroke:none;fill-rule:nonzero;fill:rgb(0%,0%,0%);fill-opacity:1;" d="M 74.328125 12.488281 L 70.9375 12.488281 C 70.289062 12.488281 69.761719 13.015625 69.761719 13.664062 C 69.761719 14.3125 70.289062 14.839844 70.9375 14.839844 L 74.328125 14.839844 C 74.976562 14.839844 75.503906 14.3125 75.503906 13.664062 C 75.503906 13.015625 74.976562 12.488281 74.328125 12.488281 Z M 74.328125 12.488281 "/>
<path style=" stroke:none;fill-rule:nonzero;fill:rgb(0%,0%,0%);fill-opacity:1;" d="M 74.328125 17.121094 L 70.9375 17.121094 C 70.289062 17.121094 69.761719 17.648438 69.761719 18.296875 C 69.761719 18.945312 70.289062 19.472656 70.9375 19.472656 L 74.328125 19.472656 C 74.976562 19.472656 75.503906 18.945312 75.503906 18.296875 C 75.503906 17.648438 74.976562 17.121094 74.328125 17.121094 Z M 74.328125 17.121094 "/>
<path style=" stroke:none;fill-rule:nonzero;fill:rgb(0%,0%,0%);fill-opacity:1;" d="M 74.328125 65.585938 L 70.9375 65.585938 C 70.289062 65.585938 69.761719 66.109375 69.761719 66.757812 C 69.761719 67.40625 70.289062 67.933594 70.9375 67.933594 L 74.328125 67.933594 C 74.976562 67.933594 75.503906 67.40625 75.503906 66.757812 C 75.503906 66.109375 74.976562 65.585938 74.328125 65.585938 Z M 74.328125 65.585938 "/>
<path style=" stroke:none;fill-rule:nonzero;fill:rgb(0%,0%,0%);fill-opacity:1;" d="M 74.328125 70.21875 L 70.9375 70.21875 C 70.289062 70.21875 69.761719 70.742188 69.761719 71.390625 C 69.761719 72.039062 70.289062 72.566406 70.9375 72.566406 L 74.328125 72.566406 C 74.976562 72.566406 75.503906 72.039062 75.503906 71.390625 C 75.503906 70.742188 74.976562 70.21875 74.328125 70.21875 Z M 74.328125 70.21875 "/>
<path style=" stroke:none;fill-rule:nonzero;fill:rgb(0%,0%,0%);fill-opacity:1;" d="M 54.574219 11.667969 C 54.574219 11.019531 54.050781 10.492188 53.402344 10.492188 L 29.222656 10.492188 C 28.574219 10.492188 28.046875 11.019531 28.046875 11.667969 C 28.046875 12.316406 28.574219 12.839844 29.222656 12.839844 L 53.402344 12.839844 C 54.050781 12.839844 54.574219 12.316406 54.574219 11.667969 Z M 54.574219 11.667969 "/>
<path style=" stroke:none;fill-rule:nonzero;fill:rgb(0%,0%,0%);fill-opacity:1;" d="M 50.117188 17.152344 C 50.117188 16.503906 49.59375 15.976562 48.945312 15.976562 L 33.679688 15.976562 C 33.03125 15.976562 32.503906 16.503906 32.503906 17.152344 C 32.503906 17.800781 33.03125 18.328125 33.679688 18.328125 L 48.945312 18.328125 C 49.59375 18.328125 50.117188 17.800781 50.117188 17.152344 Z M 50.117188 17.152344 "/>
</g>
</svg>
