<?xml version="1.0" encoding="UTF-8"?>
<svg xmlns="http://www.w3.org/2000/svg" xmlns:xlink="http://www.w3.org/1999/xlink" width="80px" height="80px" viewBox="0 0 80 80" version="1.1">
<g id="surface1">
<path style=" stroke:none;fill-rule:nonzero;fill:rgb(91.764706%,91.764706%,94.117647%);fill-opacity:1;" d="M 71.21875 18.230469 L 71.21875 11.363281 L 58.78125 11.363281 L 58.78125 18.230469 C 58.78125 21.707031 57.976562 25.132812 56.421875 28.242188 C 54.871094 31.347656 54.0625 34.777344 54.0625 38.25 L 54.0625 72.1875 C 54.0625 74.257812 55.742188 75.9375 57.8125 75.9375 L 72.1875 75.9375 C 74.257812 75.9375 75.9375 74.257812 75.9375 72.1875 L 75.9375 38.25 C 75.9375 34.777344 75.128906 31.347656 73.578125 28.238281 C 72.027344 25.132812 71.21875 21.707031 71.21875 18.230469 Z M 71.21875 18.230469 "/>
<path style=" stroke:none;fill-rule:nonzero;fill:rgb(23.137255%,66.27451%,99.215686%);fill-opacity:1;" d="M 56.90625 11.363281 L 73.09375 11.363281 L 73.09375 16.988281 L 56.90625 16.988281 Z M 56.90625 11.363281 "/>
<path style=" stroke:none;fill-rule:nonzero;fill:rgb(23.137255%,66.27451%,99.215686%);fill-opacity:1;" d="M 54.0625 38.125 L 75.9375 38.125 L 75.9375 53.75 L 54.0625 53.75 Z M 54.0625 38.125 "/>
<path style=" stroke:none;fill-rule:nonzero;fill:rgb(23.137255%,66.27451%,99.215686%);fill-opacity:1;" d="M 37.515625 9.6875 L 6.546875 9.6875 L 4.0625 19.6875 L 4.0625 75.9375 L 40 75.9375 L 40 19.6875 Z M 37.515625 9.6875 "/>
<path style=" stroke:none;fill-rule:nonzero;fill:rgb(91.764706%,91.764706%,94.117647%);fill-opacity:1;" d="M 37.515625 9.6875 L 6.546875 9.6875 L 4.0625 19.6875 L 40 19.6875 Z M 37.515625 9.6875 "/>
<path style=" stroke:none;fill-rule:nonzero;fill:rgb(91.764706%,91.764706%,94.117647%);fill-opacity:1;" d="M 4.0625 35.621094 L 40 35.621094 L 40 60.503906 L 4.0625 60.503906 Z M 4.0625 35.621094 "/>
<path style=" stroke:none;fill-rule:nonzero;fill:rgb(23.137255%,66.27451%,99.215686%);fill-opacity:1;" d="M 25.78125 49.636719 C 25.78125 51.707031 24.101562 53.386719 22.03125 53.386719 C 19.960938 53.386719 18.28125 51.707031 18.28125 49.636719 C 18.28125 46.054688 22.03125 42.738281 22.03125 42.738281 C 22.03125 42.738281 25.78125 46.054688 25.78125 49.636719 Z M 25.78125 49.636719 "/>
<path style=" stroke:none;fill-rule:nonzero;fill:rgb(100%,59.607843%,0%);fill-opacity:1;" d="M 64.882812 63.3125 C 64.878906 64.609375 65.769531 65.742188 67.03125 66.042969 L 67.03125 75.9375 L 32.96875 75.9375 L 32.96875 55.710938 C 32.96875 52.539062 38.28125 47.289062 45.226562 46.664062 L 67.03125 55.710938 L 67.03125 60.582031 C 65.769531 60.882812 64.878906 62.015625 64.882812 63.3125 Z M 64.882812 63.3125 "/>
<path style=" stroke:none;fill-rule:nonzero;fill:rgb(99.215686%,84.705882%,18.039216%);fill-opacity:1;" d="M 64.882812 63.3125 C 64.878906 64.609375 65.769531 65.742188 67.03125 66.042969 L 67.03125 75.9375 L 32.96875 75.9375 L 32.96875 55.710938 L 67.03125 55.710938 L 67.03125 60.582031 C 65.769531 60.882812 64.878906 62.015625 64.882812 63.3125 Z M 64.882812 63.3125 "/>
<path style=" stroke:none;fill-rule:nonzero;fill:rgb(99.215686%,84.705882%,18.039216%);fill-opacity:1;" d="M 46.523438 55.710938 C 46.523438 56.746094 45.683594 57.585938 44.648438 57.585938 C 43.613281 57.585938 42.773438 56.746094 42.773438 55.710938 C 42.773438 54.675781 43.613281 53.835938 44.648438 53.835938 C 45.683594 53.835938 46.523438 54.675781 46.523438 55.710938 Z M 46.523438 55.710938 "/>
<path style=" stroke:none;fill-rule:nonzero;fill:rgb(100%,59.607843%,0%);fill-opacity:1;" d="M 58.671875 70.347656 C 58.671875 71.382812 57.832031 72.222656 56.796875 72.222656 C 55.761719 72.222656 54.921875 71.382812 54.921875 70.347656 C 54.921875 69.3125 55.761719 68.472656 56.796875 68.472656 C 57.832031 68.472656 58.671875 69.3125 58.671875 70.347656 Z M 58.671875 70.347656 "/>
<path style=" stroke:none;fill-rule:nonzero;fill:rgb(100%,59.607843%,0%);fill-opacity:1;" d="M 41.40625 64.878906 C 41.40625 65.914062 40.566406 66.753906 39.53125 66.753906 C 38.496094 66.753906 37.65625 65.914062 37.65625 64.878906 C 37.65625 63.84375 38.496094 63.003906 39.53125 63.003906 C 40.566406 63.003906 41.40625 63.84375 41.40625 64.878906 Z M 41.40625 64.878906 "/>
<path style=" stroke:none;fill-rule:nonzero;fill:rgb(0%,11.372549%,21.960784%);fill-opacity:1;" d="M 55.316406 30.78125 C 55.875 31.007812 56.515625 30.742188 56.742188 30.179688 C 56.941406 29.691406 57.164062 29.203125 57.398438 28.734375 C 57.460938 28.609375 57.519531 28.484375 57.582031 28.359375 C 57.839844 27.8125 57.609375 27.160156 57.0625 26.898438 C 56.519531 26.640625 55.867188 26.871094 55.605469 27.417969 C 55.550781 27.53125 55.496094 27.644531 55.441406 27.757812 C 55.179688 28.277344 54.941406 28.816406 54.71875 29.355469 C 54.488281 29.914062 54.757812 30.550781 55.316406 30.78125 Z M 55.316406 30.78125 "/>
<path style=" stroke:none;fill-rule:nonzero;fill:rgb(0%,11.372549%,21.960784%);fill-opacity:1;" d="M 77.03125 38.125 C 77.03125 38.109375 77.027344 38.089844 77.027344 38.074219 C 76.996094 34.492188 76.152344 30.960938 74.558594 27.753906 C 73.082031 24.796875 72.316406 21.535156 72.3125 18.230469 L 72.3125 18.082031 L 73.09375 18.082031 C 73.699219 18.082031 74.1875 17.59375 74.1875 16.988281 L 74.1875 11.363281 C 74.1875 10.757812 73.699219 10.269531 73.09375 10.269531 L 56.90625 10.269531 C 56.304688 10.269531 55.8125 10.757812 55.8125 11.363281 L 55.8125 16.988281 C 55.8125 17.59375 56.304688 18.082031 56.90625 18.082031 L 57.6875 18.082031 L 57.6875 18.230469 C 57.6875 20.132812 57.433594 22.023438 56.933594 23.855469 C 56.773438 24.4375 57.117188 25.039062 57.699219 25.199219 C 58.28125 25.359375 58.882812 25.015625 59.042969 24.433594 C 59.59375 22.414062 59.875 20.328125 59.875 18.230469 L 59.875 18.082031 L 70.125 18.082031 L 70.125 18.230469 C 70.128906 21.875 70.976562 25.46875 72.601562 28.730469 C 73.890625 31.320312 74.640625 34.144531 74.808594 37.03125 L 55.191406 37.03125 C 55.261719 35.792969 55.441406 34.5625 55.726562 33.359375 C 55.867188 32.769531 55.503906 32.179688 54.914062 32.042969 C 54.328125 31.902344 53.738281 32.265625 53.597656 32.851562 C 53.195312 34.5625 52.984375 36.316406 52.972656 38.074219 C 52.972656 38.089844 52.96875 38.105469 52.96875 38.125 C 52.96875 38.140625 52.96875 38.140625 52.96875 38.152344 L 52.96875 48.691406 L 45.644531 45.652344 C 45.480469 45.585938 45.304688 45.558594 45.125 45.574219 C 43.75 45.703125 42.394531 46 41.09375 46.460938 L 41.09375 19.6875 C 41.09375 19.605469 41.082031 19.523438 41.0625 19.441406 C 41.0625 19.433594 41.0625 19.429688 41.0625 19.421875 L 38.613281 9.554688 L 38.613281 4.0625 C 38.613281 3.457031 38.125 2.96875 37.519531 2.96875 L 6.546875 2.96875 C 5.941406 2.96875 5.453125 3.457031 5.453125 4.0625 L 5.453125 9.554688 L 3 19.421875 C 3 19.429688 3 19.433594 3 19.441406 C 2.980469 19.523438 2.96875 19.605469 2.96875 19.6875 L 2.96875 75.9375 C 2.96875 76.542969 3.460938 77.03125 4.0625 77.03125 L 72.1875 77.03125 C 74.863281 77.027344 77.03125 74.863281 77.03125 72.1875 L 77.03125 38.25 C 77.03125 38.21875 77.03125 38.1875 77.03125 38.152344 C 77.027344 38.140625 77.03125 38.132812 77.03125 38.125 Z M 58 12.457031 L 72 12.457031 L 72 15.894531 L 58 15.894531 Z M 55.15625 39.21875 L 74.84375 39.21875 L 74.84375 52.65625 L 62.515625 52.65625 L 55.15625 49.601562 Z M 61.542969 54.617188 L 47.402344 54.617188 C 46.957031 53.488281 45.863281 52.742188 44.648438 52.742188 C 43.433594 52.742188 42.339844 53.488281 41.894531 54.617188 L 34.3125 54.617188 C 35.328125 52.074219 39.460938 48.382812 45.0625 47.777344 Z M 43.867188 55.707031 C 43.871094 55.277344 44.222656 54.929688 44.652344 54.929688 C 45.082031 54.933594 45.429688 55.28125 45.429688 55.710938 C 45.429688 56.144531 45.082031 56.492188 44.652344 56.492188 C 44.222656 56.496094 43.871094 56.148438 43.867188 55.71875 Z M 31.875 55.710938 L 31.875 59.410156 L 5.15625 59.410156 L 5.15625 36.714844 L 34.726562 36.714844 C 35.332031 36.714844 35.820312 36.226562 35.820312 35.621094 C 35.820312 35.019531 35.332031 34.527344 34.726562 34.527344 L 5.15625 34.527344 L 5.15625 20.777344 L 38.90625 20.777344 L 38.90625 47.390625 C 34.773438 49.484375 31.875 52.941406 31.875 55.710938 Z M 7.402344 10.78125 L 36.660156 10.78125 L 38.597656 18.59375 L 5.460938 18.59375 Z M 36.421875 5.15625 L 36.421875 8.59375 L 7.640625 8.59375 L 7.640625 5.15625 Z M 32.96875 70.390625 C 32.363281 70.390625 31.875 70.878906 31.875 71.484375 L 31.875 74.84375 L 5.15625 74.84375 L 5.15625 61.59375 L 31.875 61.59375 L 31.875 66.09375 C 31.875 66.699219 32.363281 67.1875 32.96875 67.1875 C 33.574219 67.1875 34.0625 66.699219 34.0625 66.09375 L 34.0625 56.804688 L 41.894531 56.804688 C 42.339844 57.9375 43.433594 58.679688 44.648438 58.679688 C 45.863281 58.679688 46.957031 57.9375 47.402344 56.804688 L 65.9375 56.804688 L 65.9375 59.820312 C 64.617188 60.484375 63.789062 61.835938 63.789062 63.3125 C 63.789062 64.789062 64.617188 66.140625 65.9375 66.804688 L 65.9375 74.84375 L 34.0625 74.84375 L 34.0625 71.484375 C 34.0625 70.878906 33.574219 70.390625 32.96875 70.390625 Z M 72.1875 74.84375 L 68.125 74.84375 L 68.125 66.042969 C 68.125 65.539062 67.777344 65.097656 67.285156 64.980469 C 66.515625 64.792969 65.972656 64.105469 65.972656 63.3125 C 65.972656 62.523438 66.515625 61.835938 67.285156 61.648438 C 67.777344 61.53125 68.125 61.089844 68.125 60.582031 L 68.125 55.710938 C 68.125 55.617188 68.109375 55.519531 68.082031 55.425781 C 68.074219 55.402344 68.070312 55.382812 68.0625 55.359375 C 68.03125 55.273438 67.992188 55.191406 67.945312 55.113281 L 67.9375 55.105469 C 67.886719 55.027344 67.824219 54.957031 67.75 54.894531 C 67.734375 54.878906 67.71875 54.867188 67.699219 54.851562 L 67.6875 54.84375 L 74.84375 54.84375 L 74.84375 72.1875 C 74.84375 73.652344 73.652344 74.84375 72.1875 74.84375 Z M 72.1875 74.84375 "/>
<path style=" stroke:none;fill-rule:nonzero;fill:rgb(0%,11.372549%,21.960784%);fill-opacity:1;" d="M 7.8125 43.984375 C 7.207031 43.984375 6.71875 44.472656 6.71875 45.078125 L 6.71875 49.402344 C 6.71875 50.003906 7.207031 50.496094 7.8125 50.496094 C 8.417969 50.496094 8.90625 50.003906 8.90625 49.402344 L 8.90625 45.078125 C 8.90625 44.472656 8.417969 43.984375 7.8125 43.984375 Z M 7.8125 43.984375 "/>
<path style=" stroke:none;fill-rule:nonzero;fill:rgb(0%,11.372549%,21.960784%);fill-opacity:1;" d="M 22.757812 41.917969 C 22.34375 41.550781 21.71875 41.550781 21.304688 41.917969 C 21.136719 42.066406 17.1875 45.609375 17.1875 49.636719 C 17.1875 52.3125 19.355469 54.480469 22.03125 54.480469 C 24.707031 54.480469 26.875 52.3125 26.875 49.636719 C 26.875 45.609375 22.925781 42.066406 22.757812 41.917969 Z M 22.03125 52.292969 C 20.566406 52.292969 19.375 51.101562 19.375 49.636719 C 19.375 47.496094 21.039062 45.367188 22.03125 44.285156 C 23.023438 45.367188 24.6875 47.496094 24.6875 49.636719 C 24.6875 51.101562 23.496094 52.292969 22.03125 52.292969 Z M 22.03125 52.292969 "/>
<path style=" stroke:none;fill-rule:nonzero;fill:rgb(0%,11.372549%,21.960784%);fill-opacity:1;" d="M 53.828125 70.347656 C 53.828125 71.988281 55.15625 73.316406 56.796875 73.316406 C 58.4375 73.316406 59.765625 71.988281 59.765625 70.347656 C 59.765625 68.710938 58.4375 67.378906 56.796875 67.378906 C 55.15625 67.382812 53.832031 68.710938 53.828125 70.347656 Z M 56.796875 69.566406 C 57.226562 69.566406 57.578125 69.917969 57.578125 70.347656 C 57.578125 70.78125 57.226562 71.128906 56.796875 71.128906 C 56.367188 71.128906 56.015625 70.78125 56.015625 70.347656 C 56.015625 69.917969 56.367188 69.566406 56.796875 69.566406 Z M 56.796875 69.566406 "/>
<path style=" stroke:none;fill-rule:nonzero;fill:rgb(0%,11.372549%,21.960784%);fill-opacity:1;" d="M 54.921875 60.5 C 54.921875 61.019531 54.503906 61.4375 53.984375 61.4375 C 53.464844 61.4375 53.046875 61.019531 53.046875 60.5 C 53.046875 59.984375 53.464844 59.5625 53.984375 59.5625 C 54.503906 59.5625 54.921875 59.984375 54.921875 60.5 Z M 54.921875 60.5 "/>
<path style=" stroke:none;fill-rule:nonzero;fill:rgb(0%,11.372549%,21.960784%);fill-opacity:1;" d="M 60.546875 64.332031 C 60.546875 64.851562 60.128906 65.269531 59.609375 65.269531 C 59.089844 65.269531 58.671875 64.851562 58.671875 64.332031 C 58.671875 63.816406 59.089844 63.394531 59.609375 63.394531 C 60.128906 63.394531 60.546875 63.816406 60.546875 64.332031 Z M 60.546875 64.332031 "/>
<path style=" stroke:none;fill-rule:nonzero;fill:rgb(0%,11.372549%,21.960784%);fill-opacity:1;" d="M 47.839844 50.652344 C 47.839844 51.167969 47.417969 51.589844 46.902344 51.589844 C 46.382812 51.589844 45.964844 51.167969 45.964844 50.652344 C 45.964844 50.132812 46.382812 49.714844 46.902344 49.714844 C 47.417969 49.714844 47.839844 50.132812 47.839844 50.652344 Z M 47.839844 50.652344 "/>
<path style=" stroke:none;fill-rule:nonzero;fill:rgb(0%,11.372549%,21.960784%);fill-opacity:1;" d="M 40.9375 52.03125 C 40.9375 52.550781 40.519531 52.96875 40 52.96875 C 39.480469 52.96875 39.0625 52.550781 39.0625 52.03125 C 39.0625 51.511719 39.480469 51.09375 40 51.09375 C 40.519531 51.09375 40.9375 51.511719 40.9375 52.03125 Z M 40.9375 52.03125 "/>
<path style=" stroke:none;fill-rule:nonzero;fill:rgb(0%,11.372549%,21.960784%);fill-opacity:1;" d="M 44.648438 71.640625 C 44.648438 72.160156 44.226562 72.578125 43.710938 72.578125 C 43.191406 72.578125 42.773438 72.160156 42.773438 71.640625 C 42.773438 71.121094 43.191406 70.703125 43.710938 70.703125 C 44.226562 70.703125 44.648438 71.121094 44.648438 71.640625 Z M 44.648438 71.640625 "/>
<path style=" stroke:none;fill-rule:nonzero;fill:rgb(0%,11.372549%,21.960784%);fill-opacity:1;" d="M 50.234375 67.03125 C 50.234375 67.550781 49.816406 67.96875 49.296875 67.96875 C 48.777344 67.96875 48.359375 67.550781 48.359375 67.03125 C 48.359375 66.511719 48.777344 66.09375 49.296875 66.09375 C 49.816406 66.09375 50.234375 66.511719 50.234375 67.03125 Z M 50.234375 67.03125 "/>
<path style=" stroke:none;fill-rule:nonzero;fill:rgb(0%,11.372549%,21.960784%);fill-opacity:1;" d="M 39.53125 67.847656 C 41.171875 67.847656 42.5 66.519531 42.5 64.878906 C 42.5 63.242188 41.171875 61.910156 39.53125 61.910156 C 37.890625 61.910156 36.5625 63.242188 36.5625 64.878906 C 36.566406 66.519531 37.890625 67.847656 39.53125 67.847656 Z M 39.53125 64.097656 C 39.960938 64.097656 40.3125 64.449219 40.3125 64.878906 C 40.3125 65.3125 39.960938 65.660156 39.53125 65.660156 C 39.101562 65.660156 38.75 65.3125 38.75 64.878906 C 38.75 64.449219 39.101562 64.097656 39.53125 64.097656 Z M 39.53125 64.097656 "/>
</g>
</svg>
