<?xml version="1.0" encoding="UTF-8"?>
<svg xmlns="http://www.w3.org/2000/svg" xmlns:xlink="http://www.w3.org/1999/xlink" width="80px" height="80px" viewBox="0 0 80 80" version="1.1">
<g id="surface1">
<path style=" stroke:none;fill-rule:nonzero;fill:rgb(95.686275%,78.039216%,38.431373%);fill-opacity:1;" d="M 39.867188 55.839844 C 39.867188 55.839844 32.707031 42.769531 17.0625 46.375 C 17.0625 46.375 26.535156 51.710938 28.8125 60.691406 C 31.101562 69.703125 26.125 78.75 26.125 78.75 C 26.125 78.75 38.828125 73.683594 40.605469 62.296875 C 40.605469 62.296875 66.355469 59.324219 74.621094 47.371094 C 83.570312 34.425781 76.992188 23.949219 64.261719 15.496094 C 51.984375 7.335938 35.03125 4.554688 23.4375 6.429688 C 12.425781 8.207031 5.59375 13.605469 2.398438 16.8125 C 1.011719 18.203125 0.859375 20.410156 2.054688 21.964844 C 5.058594 25.875 11.914062 32.914062 23.535156 35.117188 C 38.773438 38.007812 49.226562 34.023438 54.105469 39.003906 C 59.734375 44.746094 52.414062 52.253906 39.867188 55.839844 Z M 39.867188 55.839844 "/>
<path style=" stroke:none;fill-rule:nonzero;fill:rgb(86.666667%,69.803922%,35.686275%);fill-opacity:1;" d="M 23.535156 35.117188 C 38.773438 38.007812 49.226562 34.023438 54.105469 39.003906 C 55 39.917969 55.566406 40.875 55.839844 41.855469 C 56.347656 39.914062 55.847656 37.96875 54.105469 36.191406 C 49.226562 31.210938 38.773438 35.195312 23.535156 32.304688 C 11.914062 30.101562 5.058594 23.0625 2.054688 19.152344 C 1.824219 18.851562 1.644531 18.523438 1.511719 18.183594 C 1.039062 19.421875 1.203125 20.855469 2.054688 21.964844 C 5.058594 25.875 11.914062 32.914062 23.535156 35.117188 Z M 23.535156 35.117188 "/>
<path style=" stroke:none;fill-rule:nonzero;fill:rgb(86.666667%,69.803922%,35.686275%);fill-opacity:1;" d="M 74.621094 44.558594 C 67.039062 55.519531 43.074219 59.820312 39.144531 60.460938 C 38.820312 60.515625 38.566406 60.761719 38.507812 61.085938 C 37.035156 68.992188 30.960938 73.34375 27.671875 75.160156 C 26.882812 77.375 26.125 78.75 26.125 78.75 C 26.125 78.75 38.828125 73.683594 40.609375 62.296875 C 40.609375 62.296875 66.355469 59.324219 74.621094 47.371094 C 77.84375 42.707031 79.054688 38.363281 78.683594 34.316406 C 78.394531 37.546875 77.109375 40.957031 74.621094 44.558594 Z M 74.621094 44.558594 "/>
<path style=" stroke:none;fill-rule:nonzero;fill:rgb(100%,87.843137%,49.019608%);fill-opacity:1;" d="M 23.535156 35.117188 C 23.808594 35.171875 24.078125 35.21875 24.347656 35.265625 C 27.007812 32.253906 29.726562 27.59375 30.160156 20.878906 C 30.59375 14.171875 27.65625 9.222656 25.054688 6.207031 C 24.507812 6.273438 23.964844 6.34375 23.4375 6.429688 C 12.425781 8.207031 5.59375 13.605469 2.398438 16.8125 C 1.011719 18.203125 0.859375 20.410156 2.054688 21.964844 C 5.058594 25.875 11.914062 32.914062 23.535156 35.117188 Z M 23.535156 35.117188 "/>
<path style=" stroke:none;fill-rule:nonzero;fill:rgb(70.196078%,42.745098%,23.529412%);fill-opacity:1;" d="M 37.925781 6.292969 C 46.882812 7.335938 56.507812 10.339844 64.261719 15.496094 C 65.332031 16.203125 66.355469 16.929688 67.332031 17.667969 C 62.019531 8.78125 67.546875 1.25 67.546875 1.25 C 52.71875 1.25 42.921875 4.234375 37.925781 6.292969 Z M 37.925781 6.292969 "/>
<path style=" stroke:none;fill-rule:nonzero;fill:rgb(60.784314%,36.862745%,20.784314%);fill-opacity:1;" d="M 67.332031 17.667969 C 66.246094 15.851562 65.613281 14.089844 65.292969 12.441406 C 58.960938 8.320312 51.433594 5.605469 44.050781 4.203125 C 41.53125 4.910156 39.492188 5.648438 37.925781 6.292969 C 46.882812 7.335938 56.507812 10.339844 64.261719 15.496094 C 65.332031 16.203125 66.355469 16.929688 67.332031 17.667969 Z M 67.332031 17.667969 "/>
<path style=" stroke:none;fill-rule:nonzero;fill:rgb(70.196078%,42.745098%,23.529412%);fill-opacity:1;" d="M 41.421875 18.683594 L 30.183594 18.683594 C 30.214844 19.394531 30.207031 20.125 30.160156 20.878906 C 30.117188 21.539062 30.050781 22.179688 29.964844 22.800781 L 40.617188 26.644531 C 42.15625 27.199219 43.785156 26.066406 43.785156 24.441406 L 43.785156 21.027344 C 43.785156 19.734375 42.726562 18.683594 41.421875 18.683594 Z M 41.421875 18.683594 "/>
<path style=" stroke:none;fill-rule:nonzero;fill:rgb(60.784314%,36.862745%,20.784314%);fill-opacity:1;" d="M 40.617188 23.832031 L 30.195312 20.070312 C 30.1875 20.335938 30.175781 20.605469 30.160156 20.878906 C 30.117188 21.539062 30.050781 22.179688 29.964844 22.800781 L 40.617188 26.644531 C 42.15625 27.199219 43.785156 26.066406 43.785156 24.441406 L 43.785156 21.628906 C 43.785156 23.253906 42.15625 24.386719 40.617188 23.832031 Z M 40.617188 23.832031 "/>
<path style=" stroke:none;fill-rule:nonzero;fill:rgb(70.196078%,42.745098%,23.529412%);fill-opacity:1;" d="M 47.882812 36.472656 C 44.5 36.101562 40.238281 36.390625 35.144531 36.273438 L 44.527344 43.078125 C 44.527344 43.078125 45.53125 39.828125 47.882812 36.472656 Z M 47.882812 36.472656 "/>
<path style=" stroke:none;fill-rule:nonzero;fill:rgb(60.784314%,36.862745%,20.784314%);fill-opacity:1;" d="M 46.238281 39.15625 C 46.691406 38.3125 47.234375 37.398438 47.882812 36.472656 C 44.5 36.101562 40.238281 36.390625 35.144531 36.273438 L 39.058594 39.113281 C 41.738281 39.101562 44.132812 39.046875 46.238281 39.15625 Z M 46.238281 39.15625 "/>
<path style=" stroke:none;fill-rule:nonzero;fill:rgb(70.196078%,42.745098%,23.529412%);fill-opacity:1;" d="M 55.828125 44.707031 L 44.179688 48.660156 L 45.375 53.875 C 51.066406 51.386719 54.9375 48.046875 55.828125 44.707031 Z M 55.828125 44.707031 "/>
<path style=" stroke:none;fill-rule:nonzero;fill:rgb(60.784314%,36.862745%,20.784314%);fill-opacity:1;" d="M 55.828125 44.707031 L 53.828125 45.386719 C 51.886719 47.589844 48.75 49.65625 44.785156 51.3125 L 45.375 53.875 C 51.066406 51.386719 54.9375 48.046875 55.828125 44.707031 Z M 55.828125 44.707031 "/>
<path style=" stroke:none;fill-rule:nonzero;fill:rgb(100%,81.568627%,39.215686%);fill-opacity:1;" d="M 24.347656 35.265625 C 24.996094 34.53125 25.648438 33.699219 26.269531 32.761719 C 25.378906 32.632812 24.464844 32.484375 23.535156 32.304688 C 11.914062 30.101562 5.0625 23.0625 2.054688 19.152344 C 1.824219 18.851562 1.644531 18.523438 1.511719 18.183594 C 1.039062 19.421875 1.203125 20.855469 2.054688 21.964844 C 5.058594 25.875 11.914062 32.914062 23.535156 35.117188 C 23.808594 35.171875 24.078125 35.21875 24.347656 35.265625 Z M 24.347656 35.265625 "/>
<path style=" stroke:none;fill-rule:nonzero;fill:rgb(0%,0%,0%);fill-opacity:1;" d="M 63.28125 54.785156 C 53.140625 59.664062 40.597656 61.160156 40.472656 61.171875 C 39.949219 61.234375 39.53125 61.636719 39.449219 62.160156 C 38.304688 69.480469 32.214844 74.097656 28.523438 76.269531 C 29.871094 72.71875 31.496094 66.621094 29.929688 60.441406 C 28.289062 53.976562 23.234375 49.363281 20.125 47.050781 C 21.765625 46.878906 23.363281 46.894531 24.898438 47.097656 C 25.539062 47.183594 26.128906 46.730469 26.214844 46.089844 C 26.300781 45.445312 25.851562 44.855469 25.207031 44.769531 C 22.515625 44.410156 19.671875 44.570312 16.753906 45.242188 C 16.28125 45.351562 15.925781 45.738281 15.855469 46.21875 C 15.785156 46.699219 16.019531 47.171875 16.441406 47.410156 C 16.53125 47.460938 25.523438 52.632812 27.652344 61.019531 C 29.800781 69.480469 25.117188 78.175781 25.070312 78.261719 C 24.828125 78.695312 24.890625 79.230469 25.21875 79.601562 C 25.445312 79.859375 25.769531 80 26.097656 80 C 26.242188 80 26.390625 79.972656 26.53125 79.917969 C 26.667969 79.863281 29.914062 78.550781 33.414062 75.78125 C 37.828125 72.289062 40.648438 68.019531 41.609375 63.394531 C 44.6875 62.964844 55.242188 61.257812 64.300781 56.902344 C 64.882812 56.621094 65.128906 55.917969 64.847656 55.335938 C 64.566406 54.75 63.863281 54.503906 63.28125 54.785156 Z M 63.28125 54.785156 "/>
<path style=" stroke:none;fill-rule:nonzero;fill:rgb(0%,0%,0%);fill-opacity:1;" d="M 79.699219 32.554688 C 78.65625 27.113281 74.824219 21.839844 68.292969 16.84375 C 66.351562 13.507812 65.785156 10.003906 66.621094 6.425781 C 67.261719 3.664062 68.539062 1.882812 68.550781 1.867188 C 68.8125 1.511719 68.851562 1.039062 68.652344 0.644531 C 68.453125 0.25 68.046875 0 67.605469 0 C 62.488281 0 57.546875 0.355469 52.917969 1.054688 C 52.277344 1.152344 51.835938 1.75 51.933594 2.390625 C 52.03125 3.03125 52.628906 3.472656 53.269531 3.375 C 57.167969 2.785156 61.296875 2.449219 65.574219 2.367188 C 65.148438 3.25 64.6875 4.410156 64.359375 5.785156 C 63.847656 7.917969 63.589844 10.886719 64.601562 14.234375 C 58.75 10.425781 51.585938 7.574219 43.835938 5.984375 C 43.453125 5.90625 43.074219 5.835938 42.691406 5.761719 C 44.582031 5.171875 46.59375 4.648438 48.707031 4.199219 C 49.34375 4.066406 49.75 3.441406 49.613281 2.808594 C 49.480469 2.175781 48.855469 1.769531 48.222656 1.902344 C 44.386719 2.71875 40.867188 3.769531 37.753906 5.027344 C 32.589844 4.449219 27.578125 4.5 23.214844 5.203125 C 11.785156 7.050781 4.695312 12.722656 1.488281 15.9375 C -0.300781 17.730469 -0.5 20.589844 1.015625 22.605469 C 1.023438 22.613281 1.027344 22.617188 1.03125 22.625 C 1.035156 22.632812 1.042969 22.636719 1.046875 22.644531 C 4.203125 26.753906 11.292969 33.988281 23.285156 36.261719 C 27.457031 37.054688 31.296875 37.339844 34.738281 37.429688 L 43.847656 44.035156 C 44.46875 44.507812 45.445312 44.183594 45.65625 43.433594 C 45.667969 43.402344 46.53125 40.671875 48.464844 37.722656 C 50.503906 38.023438 52.121094 38.625 53.296875 39.824219 C 54.515625 41.066406 55.03125 42.410156 54.847656 43.820312 L 43.808594 47.566406 C 43.238281 47.757812 42.90625 48.351562 43.042969 48.941406 L 44.019531 53.203125 C 42.875 53.667969 41.664062 54.101562 40.394531 54.488281 C 39.195312 52.675781 35.839844 48.320312 30.042969 46.027344 C 29.441406 45.789062 28.757812 46.085938 28.519531 46.6875 C 28.28125 47.289062 28.578125 47.972656 29.179688 48.210938 C 35.652344 50.773438 38.808594 56.378906 38.835938 56.433594 C 39.101562 56.917969 39.671875 57.148438 40.191406 57 C 49.289062 54.398438 55.734375 49.800781 57.003906 45 C 57.648438 42.554688 56.949219 40.195312 54.972656 38.179688 C 51.871094 35.011719 46.9375 35.054688 40.6875 35.109375 C 36.71875 35.144531 31.914062 35.183594 26.503906 34.414062 C 28.675781 31.476562 30.15625 28.066406 30.871094 24.351562 L 40.21875 27.722656 C 40.609375 27.863281 41.019531 27.933594 41.425781 27.933594 C 42.148438 27.933594 42.863281 27.710938 43.46875 27.285156 C 44.40625 26.628906 44.96875 25.550781 44.96875 24.410156 L 44.96875 20.992188 C 44.96875 19.050781 43.378906 17.46875 41.425781 17.46875 L 31.257812 17.46875 C 30.832031 13.136719 29.105469 9.664062 27.277344 7.105469 C 32.242188 6.75 37.820312 7.152344 43.367188 8.285156 C 50.980469 9.847656 58 12.660156 63.664062 16.425781 C 71.6875 21.753906 76.304688 27.332031 77.394531 33 C 78.234375 37.367188 77 41.984375 73.722656 46.71875 C 72.265625 48.828125 70.097656 50.800781 67.277344 52.585938 C 66.730469 52.933594 66.566406 53.65625 66.914062 54.207031 C 67.261719 54.753906 67.988281 54.917969 68.535156 54.570312 C 71.621094 52.617188 74.015625 50.425781 75.65625 48.054688 C 79.300781 42.78125 80.664062 37.566406 79.699219 32.554688 Z M 46.207031 52.234375 L 45.566406 49.449219 L 53.550781 46.738281 C 52.101562 48.710938 49.539062 50.621094 46.207031 52.234375 Z M 31.3125 20.917969 C 31.335938 20.542969 31.347656 20.179688 31.351562 19.816406 L 41.425781 19.816406 C 42.082031 19.816406 42.617188 20.34375 42.617188 20.992188 L 42.617188 24.410156 C 42.617188 24.792969 42.4375 25.140625 42.117188 25.363281 C 41.792969 25.59375 41.390625 25.648438 41.015625 25.511719 L 31.222656 21.980469 C 31.257812 21.628906 31.289062 21.273438 31.3125 20.917969 Z M 40.707031 37.457031 C 42.589844 37.441406 44.300781 37.425781 45.839844 37.492188 C 44.980469 38.941406 44.367188 40.269531 43.976562 41.226562 L 38.792969 37.46875 C 39.449219 37.46875 40.089844 37.460938 40.707031 37.457031 Z M 28.96875 20.765625 C 28.636719 25.871094 26.917969 30.3125 23.859375 33.980469 C 23.8125 33.972656 23.769531 33.964844 23.722656 33.957031 C 15.609375 32.417969 9.898438 28.457031 6.238281 24.929688 C 8.25 25.535156 10.875 26.125 14.113281 26.4375 C 14.148438 26.441406 14.1875 26.441406 14.226562 26.441406 C 14.824219 26.441406 15.335938 25.988281 15.394531 25.382812 C 15.457031 24.738281 14.984375 24.164062 14.335938 24.101562 C 7.609375 23.449219 3.675781 21.519531 2.785156 21.039062 C 2.089844 19.964844 2.230469 18.519531 3.152344 17.597656 C 6.160156 14.582031 12.8125 9.265625 23.589844 7.523438 C 23.902344 7.472656 24.21875 7.429688 24.535156 7.382812 C 26.863281 10.242188 29.355469 14.761719 28.96875 20.765625 Z M 28.96875 20.765625 "/>
<path style=" stroke:none;fill-rule:nonzero;fill:rgb(0%,0%,0%);fill-opacity:1;" d="M 14.222656 15.371094 C 13.574219 15.371094 13.050781 15.898438 13.050781 16.546875 L 13.050781 17.625 C 13.050781 18.273438 13.574219 18.796875 14.222656 18.796875 C 14.875 18.796875 15.398438 18.273438 15.398438 17.625 L 15.398438 16.546875 C 15.398438 15.898438 14.875 15.371094 14.222656 15.371094 Z M 14.222656 15.371094 "/>
</g>
</svg>
