<?xml version="1.0" encoding="UTF-8"?>
<svg xmlns="http://www.w3.org/2000/svg" xmlns:xlink="http://www.w3.org/1999/xlink" width="80px" height="80px" viewBox="0 0 80 80" version="1.1">
<g id="surface1">
<path style=" stroke:none;fill-rule:nonzero;fill:rgb(42.745098%,31.372549%,27.45098%);fill-opacity:1;" d="M 34.304688 3.25 L 36.300781 4.492188 C 36.300781 4.492188 31.542969 7.992188 33.28125 15.039062 L 29.0625 17.054688 C 29.0625 17.054688 27.332031 9.058594 31.066406 3.875 C 31.8125 2.847656 33.230469 2.574219 34.304688 3.25 Z M 34.304688 3.25 "/>
<path style=" stroke:none;fill-rule:nonzero;fill:rgb(68.235294%,80%,46.27451%);fill-opacity:1;" d="M 30.464844 14.761719 L 24.847656 11.679688 C 23.535156 13.136719 22.492188 14.8125 21.765625 16.636719 C 21.765625 16.636719 18.816406 15.902344 16.449219 15.988281 L 15.925781 21.378906 L 10.578125 22.433594 L 10.972656 28.082031 L 5.976562 30.054688 L 7.6875 34.699219 L 3.261719 38.34375 L 7.160156 44.164062 L 2.734375 48.324219 L 7.25 51.523438 C 7.25 51.523438 5.101562 54.371094 4.269531 56.519531 C 4.269531 56.519531 6.503906 58.269531 9.175781 58.972656 C 9.175781 58.972656 8.476562 62.871094 8.738281 65.28125 L 14.125 65.28125 L 30.027344 71.59375 L 41.191406 67.949219 C 48.066406 51.515625 57.730469 31.09375 55.117188 28.234375 L 53.601562 27.820312 L 54.171875 21.160156 C 54.171875 21.160156 50.929688 19.890625 48.082031 20.023438 C 48.082031 20.023438 47.25 16.078125 45.761719 13.011719 C 45.761719 13.011719 41.511719 14.414062 39.496094 14.675781 L 35.945312 11.039062 Z M 30.464844 14.761719 "/>
<path style=" stroke:none;fill-rule:nonzero;fill:rgb(51.764706%,60%,29.019608%);fill-opacity:1;" d="M 55.121094 28.234375 L 53.578125 31.007812 C 53.578125 31.007812 49.128906 32.457031 49.90625 37.140625 C 49.90625 37.140625 41.445312 40.304688 43.753906 49.738281 C 43.753906 49.738281 37.6875 52.574219 39.902344 59.335938 L 35.613281 68.015625 L 32.113281 66.582031 L 26.363281 68.730469 L 22.914062 65.351562 L 14.128906 65.28125 L 14.257812 71.109375 L 21.09375 71.109375 L 23.414062 76.671875 L 30.03125 73.210938 L 34.324219 77.109375 L 44.183594 69.003906 L 60.351562 29.660156 Z M 55.121094 28.234375 "/>
<path style=" stroke:none;fill-rule:nonzero;fill:rgb(68.235294%,80%,46.27451%);fill-opacity:1;" d="M 39.902344 72.527344 L 62.84375 22.046875 L 64.691406 26.851562 L 70.457031 26.410156 L 70.457031 32.324219 L 75.488281 33.953125 L 73.34375 40.089844 L 77.261719 44.894531 L 73.34375 49.480469 L 76.222656 55.246094 L 70.53125 57.613281 L 71.9375 63.75 L 66.097656 64.046875 L 65.503906 69.738281 L 59.144531 69.664062 L 58.183594 74.472656 L 52.859375 71.957031 L 48.867188 75.507812 L 44.875 71.4375 Z M 39.902344 72.527344 "/>
<path style=" stroke:none;fill-rule:nonzero;fill:rgb(100%,96.862745%,88.235294%);fill-opacity:1;" d="M 69.734375 44.441406 C 69.28125 35.347656 63.136719 30.003906 60.167969 27.933594 L 42.890625 65.945312 C 57.101562 70.507812 70.457031 57.734375 69.734375 44.441406 Z M 69.734375 44.441406 "/>
<path style=" stroke:none;fill-rule:nonzero;fill:rgb(100%,81.568627%,40%);fill-opacity:1;" d="M 48.71875 62.542969 C 47.445312 62.199219 43.722656 61.386719 44.367188 56.839844 C 44.367188 56.839844 45.257812 52.875 48.527344 51.894531 C 46.039062 47.972656 49.121094 39.726562 54.144531 39.523438 C 53.003906 36.414062 56.03125 32.601562 59.792969 33.238281 C 63.894531 34.898438 63.363281 41.871094 60.839844 51.132812 C 57.53125 56.878906 54.253906 62.691406 48.71875 62.542969 Z M 48.71875 62.542969 "/>
<path style=" stroke:none;fill-rule:nonzero;fill:rgb(51.764706%,60%,29.019608%);fill-opacity:1;" d="M 14.628906 52.15625 C 14.429688 52.15625 14.242188 52.078125 14.097656 51.945312 L 9.921875 48.007812 C 9.613281 47.714844 9.597656 47.222656 9.890625 46.910156 L 13.445312 43.144531 L 10.886719 38.390625 C 10.6875 38.019531 10.820312 37.558594 11.183594 37.351562 L 15.195312 35.066406 L 14.367188 30.195312 C 14.300781 29.828125 14.511719 29.46875 14.859375 29.339844 L 19.238281 27.710938 L 19.929688 23.863281 C 19.996094 23.492188 20.320312 23.222656 20.695312 23.222656 L 24.867188 23.222656 C 25.296875 23.222656 25.644531 23.570312 25.644531 24 C 25.644531 24.429688 25.296875 24.777344 24.867188 24.777344 L 21.34375 24.777344 L 20.6875 28.421875 C 20.636719 28.691406 20.449219 28.914062 20.191406 29.011719 L 16.003906 30.570312 L 16.816406 35.339844 C 16.871094 35.660156 16.71875 35.980469 16.433594 36.144531 L 12.613281 38.324219 L 15.074219 42.902344 C 15.234375 43.195312 15.1875 43.558594 14.957031 43.804688 L 11.554688 47.410156 L 15.160156 50.816406 C 15.386719 51.035156 15.460938 51.371094 15.34375 51.664062 C 15.226562 51.957031 14.945312 52.152344 14.628906 52.15625 Z M 14.628906 52.15625 "/>
<path style=" stroke:none;fill-rule:nonzero;fill:rgb(51.764706%,60%,29.019608%);fill-opacity:1;" d="M 29.25 60.113281 C 29.09375 60.113281 28.9375 60.0625 28.808594 59.972656 L 24.421875 56.90625 C 24.175781 56.734375 24.050781 56.433594 24.105469 56.136719 L 24.855469 51.867188 L 21.332031 48.867188 C 21.035156 48.617188 20.972656 48.191406 21.175781 47.863281 L 23.464844 44.195312 L 20.449219 41.277344 C 20.175781 41.015625 20.132812 40.589844 20.351562 40.277344 L 23.285156 36.058594 C 23.878906 35.230469 25.128906 36.09375 24.558594 36.945312 L 22.003906 40.625 L 24.992188 43.515625 C 25.257812 43.773438 25.304688 44.175781 25.113281 44.488281 L 22.847656 48.117188 L 26.203125 50.972656 C 26.410156 51.148438 26.511719 51.425781 26.464844 51.695312 L 25.71875 55.917969 L 29.699219 58.699219 C 29.96875 58.898438 30.085938 59.246094 29.984375 59.566406 C 29.882812 59.886719 29.585938 60.109375 29.25 60.113281 Z M 29.25 60.113281 "/>
<path style=" stroke:none;fill-rule:nonzero;fill:rgb(51.764706%,60%,29.019608%);fill-opacity:1;" d="M 23.078125 67.730469 C 22.808594 67.730469 22.558594 67.589844 22.414062 67.359375 L 19.84375 63.199219 L 16.710938 62.699219 C 16.3125 62.636719 16.03125 62.277344 16.0625 61.875 L 16.367188 57.695312 C 16.410156 57.277344 16.777344 56.96875 17.199219 56.996094 C 17.621094 57.027344 17.9375 57.390625 17.917969 57.8125 L 17.660156 61.277344 L 20.441406 61.722656 C 20.664062 61.757812 20.859375 61.890625 20.976562 62.082031 L 26.363281 68.734375 C 26.589844 69.097656 23.847656 67.390625 23.484375 67.613281 C 23.363281 67.691406 23.222656 67.730469 23.078125 67.730469 Z M 23.078125 67.730469 "/>
<path style=" stroke:none;fill-rule:nonzero;fill:rgb(51.764706%,60%,29.019608%);fill-opacity:1;" d="M 52.484375 36.023438 C 52.40625 36.023438 52.332031 36.015625 52.261719 35.992188 L 46.15625 34.167969 C 45.8125 34.066406 45.582031 33.738281 45.605469 33.375 L 45.941406 27.984375 L 41.152344 27.421875 C 40.761719 27.375 40.464844 27.042969 40.464844 26.648438 L 40.464844 22.824219 C 40.464844 22.394531 40.8125 22.046875 41.242188 22.046875 C 41.671875 22.046875 42.019531 22.394531 42.019531 22.824219 L 42.019531 25.960938 L 46.851562 26.53125 C 47.261719 26.578125 47.5625 26.9375 47.539062 27.351562 L 47.191406 32.859375 L 52.707031 34.503906 C 53.070312 34.621094 53.296875 34.980469 53.242188 35.359375 C 53.1875 35.738281 52.863281 36.019531 52.484375 36.023438 Z M 52.484375 36.023438 "/>
<path style=" stroke:none;fill-rule:nonzero;fill:rgb(51.764706%,60%,29.019608%);fill-opacity:1;" d="M 28.183594 24.554688 C 27.464844 23.804688 28.566406 22.71875 29.308594 23.445312 C 30.023438 24.195312 28.925781 25.28125 28.183594 24.554688 Z M 28.183594 24.554688 "/>
<path style=" stroke:none;fill-rule:nonzero;fill:rgb(92.941176%,61.568627%,24.313725%);fill-opacity:1;" d="M 64.660156 38.050781 C 63.703125 35.289062 62.269531 33.71875 59.792969 33.238281 C 60.621094 33.910156 61.902344 35.339844 61.53125 37.566406 C 61.292969 38.886719 60.136719 39.847656 58.796875 39.832031 C 58.230469 39.835938 57.667969 39.867188 57.105469 39.929688 C 56.859375 39.957031 56.652344 40.132812 56.585938 40.371094 C 56.515625 40.613281 56.605469 40.871094 56.804688 41.019531 C 59.210938 42.75 61.183594 46.070312 59.660156 49.304688 C 58.902344 51.125 57.316406 52.625 55.335938 52.96875 C 54.039062 53.191406 52.710938 53.144531 51.429688 52.835938 C 51.179688 52.777344 50.921875 52.878906 50.78125 53.09375 C 50.640625 53.308594 50.648438 53.585938 50.804688 53.792969 C 51.304688 54.441406 51.9375 54.980469 52.660156 55.371094 C 56.144531 57.648438 52.734375 62.09375 48.71875 62.539062 C 54.675781 63.816406 57.847656 57.289062 57.847656 57.289062 C 63.53125 55.941406 66.089844 47.855469 62.917969 43.773438 C 65.695312 41.921875 64.660156 38.050781 64.660156 38.050781 Z M 64.660156 38.050781 "/>
<path style=" stroke:none;fill-rule:nonzero;fill:rgb(100%,96.862745%,88.235294%);fill-opacity:1;" d="M 51.660156 50.523438 C 49.125 50.449219 49.125 47.101562 51.660156 47.03125 C 54.195312 47.105469 54.195312 50.449219 51.660156 50.523438 Z M 51.660156 50.523438 "/>
<path style=" stroke:none;fill-rule:nonzero;fill:rgb(100%,96.862745%,88.235294%);fill-opacity:1;" d="M 48.425781 59.761719 C 46.691406 59.71875 46.691406 57.40625 48.425781 57.367188 C 50.164062 57.40625 50.164062 59.71875 48.425781 59.761719 Z M 48.425781 59.761719 "/>
<path style=" stroke:none;fill-rule:nonzero;fill:rgb(16.862745%,16.862745%,16.862745%);fill-opacity:1;" d="M 3.546875 56.238281 C 3.421875 56.554688 3.523438 56.917969 3.789062 57.128906 C 5.160156 58.15625 6.683594 58.964844 8.300781 59.523438 C 8.109375 60.777344 7.757812 63.46875 7.96875 65.363281 C 8.011719 65.757812 8.34375 66.058594 8.738281 66.058594 L 13.367188 66.058594 L 13.484375 71.125 C 13.492188 71.546875 13.835938 71.886719 14.257812 71.882812 L 20.578125 71.882812 L 22.699219 76.972656 C 22.785156 77.171875 22.949219 77.328125 23.152344 77.402344 C 23.359375 77.472656 23.582031 77.460938 23.777344 77.359375 L 29.910156 74.148438 L 33.804688 77.683594 C 34.089844 77.945312 34.519531 77.953125 34.820312 77.710938 L 40.25 73.242188 L 44.621094 72.289062 L 48.3125 76.050781 C 48.605469 76.34375 49.074219 76.359375 49.382812 76.085938 L 52.992188 72.878906 L 57.851562 75.171875 C 58.070312 75.273438 58.320312 75.273438 58.535156 75.164062 C 58.746094 75.058594 58.898438 74.855469 58.945312 74.625 L 59.78125 70.449219 L 65.496094 70.515625 C 65.898438 70.519531 66.234375 70.21875 66.277344 69.820312 L 66.800781 64.785156 L 71.976562 64.523438 C 72.203125 64.511719 72.414062 64.398438 72.554688 64.214844 C 72.691406 64.035156 72.742188 63.800781 72.695312 63.574219 L 71.433594 58.078125 L 76.519531 55.964844 C 76.71875 55.878906 76.871094 55.71875 76.945312 55.515625 C 77.023438 55.316406 77.011719 55.09375 76.914062 54.898438 L 74.265625 49.59375 L 77.851562 45.398438 C 78.09375 45.113281 78.097656 44.695312 77.863281 44.402344 L 74.21875 39.933594 L 76.21875 34.207031 C 76.285156 34.007812 76.269531 33.792969 76.179688 33.605469 C 76.085938 33.417969 75.921875 33.277344 75.722656 33.210938 L 71.234375 31.757812 L 71.234375 26.410156 C 71.234375 26.191406 71.144531 25.988281 70.984375 25.839844 C 70.824219 25.691406 70.613281 25.617188 70.398438 25.636719 L 65.207031 26.035156 L 63.566406 21.769531 C 63.453125 21.476562 63.179688 21.28125 62.867188 21.269531 C 62.554688 21.265625 62.269531 21.445312 62.136719 21.726562 L 59.054688 28.503906 L 54.433594 27.242188 L 54.945312 21.226562 C 54.976562 20.882812 54.777344 20.5625 54.457031 20.4375 C 54.328125 20.386719 51.488281 19.285156 48.699219 19.238281 C 48.398438 17.984375 47.632812 15.089844 46.460938 12.671875 C 46.289062 12.324219 45.886719 12.152344 45.519531 12.273438 C 45.480469 12.289062 41.808594 13.492188 39.773438 13.847656 L 36.503906 10.5 C 36.238281 10.230469 35.820312 10.1875 35.511719 10.398438 L 33.683594 11.636719 C 33.847656 7.351562 36.636719 5.210938 36.761719 5.117188 C 36.96875 4.964844 37.082031 4.71875 37.074219 4.464844 C 37.0625 4.207031 36.929688 3.972656 36.710938 3.832031 L 34.71875 2.589844 C 29.386719 -0.105469 27.824219 9.375 27.886719 12.460938 L 25.222656 11 C 24.902344 10.824219 24.503906 10.894531 24.265625 11.167969 C 23.042969 12.527344 22.042969 14.066406 21.296875 15.734375 C 20.265625 15.519531 18.207031 15.148438 16.421875 15.214844 C 16.03125 15.230469 15.714844 15.527344 15.675781 15.914062 L 15.207031 20.730469 L 10.429688 21.671875 C 10.042969 21.746094 9.777344 22.097656 9.804688 22.488281 L 10.160156 27.570312 L 5.695312 29.332031 C 5.300781 29.488281 5.105469 29.925781 5.25 30.324219 L 6.769531 34.449219 L 2.769531 37.746094 C 2.460938 38 2.394531 38.445312 2.617188 38.777344 L 6.148438 44.046875 L 2.203125 47.757812 C 2.035156 47.921875 1.949219 48.148438 1.964844 48.378906 C 1.980469 48.609375 2.097656 48.824219 2.289062 48.960938 L 6.160156 51.703125 C 5.460938 52.691406 4.171875 54.628906 3.546875 56.238281 Z M 62.78125 24.054688 L 63.964844 27.132812 C 64.089844 27.453125 64.410156 27.65625 64.75 27.625 L 69.683594 27.246094 L 69.683594 32.324219 C 69.683594 32.660156 69.898438 32.957031 70.21875 33.0625 L 74.492188 34.445312 L 72.609375 39.832031 C 72.519531 40.085938 72.570312 40.367188 72.742188 40.578125 L 76.25 44.882812 L 72.753906 48.972656 C 72.550781 49.210938 72.507812 49.546875 72.648438 49.824219 L 75.15625 54.847656 L 70.234375 56.894531 C 69.886719 57.042969 69.691406 57.417969 69.777344 57.785156 L 70.976562 63.019531 L 66.058594 63.269531 C 65.675781 63.289062 65.363281 63.585938 65.324219 63.964844 L 64.804688 68.953125 L 59.15625 68.886719 C 58.78125 68.882812 58.457031 69.144531 58.386719 69.511719 L 57.617188 73.34375 L 53.191406 71.253906 C 52.910156 71.121094 52.578125 71.167969 52.347656 71.375 L 48.90625 74.433594 L 45.429688 70.894531 C 45.242188 70.703125 44.96875 70.621094 44.710938 70.679688 L 41.25 71.433594 L 43.3125 66.894531 C 49.546875 68.753906 55.457031 67.414062 61.121094 63.40625 C 74.605469 53.824219 72.503906 35.292969 61.136719 27.675781 Z M 60.480469 29.125 C 70.953125 36.382812 72.582031 53.359375 60.214844 62.144531 C 54.890625 65.960938 49.421875 67.078125 43.960938 65.472656 L 45.53125 62.019531 C 51.414062 65.882812 56.535156 61.375 58.371094 57.949219 C 63.816406 56.5 66.863281 48.691406 63.964844 43.9375 C 68.226562 39.226562 63.726562 32.246094 58.992188 32.398438 Z M 63.914062 38.265625 C 63.988281 38.554688 64.699219 41.652344 62.484375 43.128906 C 62.304688 43.253906 62.183594 43.449219 62.152344 43.664062 C 62.121094 43.882812 62.183594 44.105469 62.324219 44.277344 C 65.152344 47.917969 62.730469 55.375 57.679688 56.53125 C 57.449219 56.585938 57.253906 56.738281 57.148438 56.949219 C 56.464844 58.53125 52.667969 63.757812 47.367188 61.289062 C 47.191406 61.222656 44.589844 60.226562 45.125 56.996094 C 45.179688 56.773438 45.925781 53.875 48.238281 52.828125 C 48.679688 53.371094 49.875 54.636719 51.28125 54.984375 C 51.644531 54.976562 51.953125 54.722656 52.03125 54.367188 C 52.105469 54.011719 51.925781 53.648438 51.59375 53.496094 C 50.609375 53.078125 49.769531 52.375 49.183594 51.476562 C 49.109375 51.367188 47.484375 48.707031 49.1875 44.675781 C 51.050781 40.332031 53.976562 40.300781 54.167969 40.296875 C 54.285156 40.296875 57.109375 40.242188 58.699219 42.660156 C 59.273438 43.503906 60.542969 42.664062 59.996094 41.804688 C 58.410156 39.394531 55.90625 38.878906 54.742188 38.773438 C 54.148438 33.511719 61.847656 31.503906 63.914062 38.265625 Z M 31.695312 4.328125 C 32.203125 3.632812 33.164062 3.449219 33.894531 3.90625 L 35.023438 4.609375 C 33.863281 5.816406 31.914062 8.496094 32.140625 12.6875 L 30.421875 13.855469 L 29.445312 13.316406 C 29.378906 10.707031 29.71875 7.074219 31.695312 4.328125 Z M 3.960938 48.242188 L 7.695312 44.730469 C 7.972656 44.46875 8.019531 44.046875 7.808594 43.730469 L 4.296875 38.496094 L 8.179688 35.296875 C 8.4375 35.089844 8.53125 34.742188 8.417969 34.429688 L 6.96875 30.5 L 11.257812 28.804688 C 11.574219 28.679688 11.773438 28.367188 11.746094 28.027344 L 11.402344 23.0625 L 16.074219 22.140625 C 16.410156 22.074219 16.664062 21.796875 16.695312 21.453125 L 17.15625 16.761719 C 18.644531 16.835938 20.125 17.042969 21.578125 17.390625 C 21.957031 17.484375 22.347656 17.28125 22.488281 16.917969 C 23.101562 15.371094 23.957031 13.933594 25.03125 12.664062 L 30.09375 15.445312 C 30.347656 15.582031 30.660156 15.570312 30.902344 15.40625 L 35.84375 12.046875 L 38.941406 15.21875 C 39.113281 15.394531 39.355469 15.476562 39.597656 15.445312 C 41.195312 15.238281 44.054688 14.371094 45.347656 13.960938 C 46.1875 15.972656 46.851562 18.054688 47.324219 20.183594 C 47.402344 20.554688 47.738281 20.816406 48.121094 20.796875 C 50.101562 20.707031 52.34375 21.355469 53.347656 21.691406 L 52.832031 27.753906 C 52.800781 28.128906 53.039062 28.46875 53.402344 28.570312 L 58.40625 29.933594 C 58.398438 29.953125 57.15625 32.679688 57.152344 32.695312 C 54.632812 33.402344 52.722656 36.421875 53.191406 38.871094 C 48.492188 39.78125 45.523438 47.246094 47.464844 51.476562 C 44.488281 52.910156 43.648438 56.5 43.609375 56.664062 C 43.277344 58.421875 43.703125 59.8125 44.378906 60.800781 L 39.269531 72.039062 L 34.351562 76.085938 L 30.554688 72.636719 C 30.3125 72.417969 29.960938 72.371094 29.671875 72.523438 L 23.808594 75.59375 L 21.8125 70.808594 C 21.691406 70.519531 21.410156 70.332031 21.09375 70.332031 L 15.019531 70.332031 L 14.902344 65.261719 C 14.894531 64.839844 14.550781 64.503906 14.128906 64.503906 L 9.460938 64.503906 C 9.386719 62.234375 9.933594 59.144531 9.941406 59.109375 C 10.011719 58.710938 9.765625 58.324219 9.375 58.222656 C 7.894531 57.792969 6.496094 57.125 5.226562 56.25 C 8.527344 49.71875 9.828125 52.660156 3.960938 48.242188 Z M 3.960938 48.242188 "/>
</g>
</svg>
