<?xml version="1.0" encoding="UTF-8"?>
<svg xmlns="http://www.w3.org/2000/svg" xmlns:xlink="http://www.w3.org/1999/xlink" width="80px" height="80px" viewBox="0 0 80 80" version="1.1">
<g id="surface1">
<path style=" stroke:none;fill-rule:nonzero;fill:rgb(96.470588%,80%,56.470588%);fill-opacity:1;" d="M 7.003906 80 C 7.003906 79.945312 16.828125 71.605469 40 71.605469 C 62.507812 71.605469 72.996094 79.945312 72.996094 80 Z M 7.003906 80 "/>
<path style=" stroke:none;fill-rule:nonzero;fill:rgb(94.117647%,75.686275%,49.803922%);fill-opacity:1;" d="M 40 71.605469 C 38.5625 71.605469 37.175781 71.636719 35.839844 71.699219 C 55.558594 72.609375 64.789062 79.949219 64.789062 80 L 72.996094 80 C 72.996094 79.945312 62.507812 71.605469 40 71.605469 Z M 40 71.605469 "/>
<path style=" stroke:none;fill-rule:nonzero;fill:rgb(77.254902%,90.980392%,40%);fill-opacity:1;" d="M 54.984375 13.527344 C 52.300781 21.316406 45.066406 22.65625 45.066406 22.65625 C 45.066406 22.65625 40.269531 16.914062 42.886719 9.332031 C 45.640625 1.339844 52.875 0 52.875 0 C 52.875 0 57.703125 5.636719 54.984375 13.527344 Z M 54.984375 13.527344 "/>
<path style=" stroke:none;fill-rule:nonzero;fill:rgb(69.803922%,85.098039%,29.411765%);fill-opacity:1;" d="M 52.875 0 C 52.875 0 50.964844 0.355469 48.730469 1.785156 C 49.957031 4.046875 51.476562 8.292969 49.671875 13.527344 C 48.375 17.296875 46.011719 19.554688 43.917969 20.882812 C 44.53125 22.015625 45.066406 22.65625 45.066406 22.65625 C 45.066406 22.65625 52.300781 21.316406 54.984375 13.527344 C 57.703125 5.636719 52.875 0 52.875 0 Z M 52.875 0 "/>
<path style=" stroke:none;fill-rule:nonzero;fill:rgb(42.352941%,54.117647%,7.45098%);fill-opacity:1;" d="M 39.6875 41.09375 C 39.566406 41.09375 39.445312 41.074219 39.324219 41.039062 C 38.6875 40.839844 38.335938 40.160156 38.535156 39.527344 C 38.828125 38.582031 45.816406 16.289062 49.222656 7.941406 C 49.472656 7.324219 50.175781 7.027344 50.796875 7.277344 C 51.414062 7.53125 51.707031 8.234375 51.457031 8.851562 C 48.089844 17.105469 40.910156 40.015625 40.835938 40.246094 C 40.675781 40.761719 40.199219 41.09375 39.6875 41.09375 Z M 39.6875 41.09375 "/>
<path style=" stroke:none;fill-rule:nonzero;fill:rgb(42.352941%,54.117647%,7.45098%);fill-opacity:1;" d="M 39.6875 76.808594 C 39.019531 76.808594 38.480469 76.269531 38.480469 75.601562 L 38.480469 39.3125 C 38.480469 38.648438 39.019531 38.105469 39.6875 38.105469 C 40.351562 38.105469 40.894531 38.648438 40.894531 39.3125 L 40.894531 75.601562 C 40.894531 76.269531 40.351562 76.808594 39.6875 76.808594 Z M 39.6875 76.808594 "/>
<path style=" stroke:none;fill-rule:nonzero;fill:rgb(61.176471%,75.294118%,25.882353%);fill-opacity:1;" d="M 47.769531 50.140625 C 43.359375 50.765625 40.113281 49.867188 40.113281 49.867188 C 40.113281 49.867188 37.304688 38.597656 46.082031 29.792969 C 55.324219 20.519531 66.324219 23.574219 66.324219 23.574219 C 66.324219 23.574219 68.738281 32.769531 62.34375 41.316406 "/>
<path style=" stroke:none;fill-rule:nonzero;fill:rgb(52.156863%,66.666667%,9.411765%);fill-opacity:1;" d="M 66.324219 23.574219 C 66.324219 23.574219 63.375 22.753906 59.246094 23.253906 C 60.363281 23.394531 61.011719 23.574219 61.011719 23.574219 C 61.011719 23.574219 63.425781 32.769531 57.03125 41.316406 L 42.460938 50.140625 C 42.296875 50.164062 42.136719 50.183594 41.980469 50.203125 C 43.355469 50.371094 45.394531 50.476562 47.769531 50.140625 L 62.34375 41.316406 C 68.738281 32.769531 66.324219 23.574219 66.324219 23.574219 Z M 66.324219 23.574219 "/>
<path style=" stroke:none;fill-rule:nonzero;fill:rgb(77.254902%,90.980392%,40%);fill-opacity:1;" d="M 29.59375 44.230469 C 37.421875 50.402344 36.085938 59.246094 36.085938 59.246094 C 36.085938 59.246094 27.632812 62.480469 20.007812 56.46875 C 11.976562 50.140625 13.3125 41.296875 13.3125 41.296875 C 13.3125 41.296875 21.664062 37.980469 29.59375 44.230469 Z M 29.59375 44.230469 "/>
<path style=" stroke:none;fill-rule:nonzero;fill:rgb(61.176471%,75.294118%,25.882353%);fill-opacity:1;" d="M 20.617188 31.503906 C 28.5 41.546875 39.78125 39.820312 39.78125 39.820312 C 39.78125 39.820312 43.898438 28.964844 36.21875 19.183594 C 28.132812 8.878906 16.851562 10.605469 16.851562 10.605469 C 16.851562 10.605469 12.632812 21.332031 20.617188 31.503906 Z M 20.617188 31.503906 "/>
<path style=" stroke:none;fill-rule:nonzero;fill:rgb(42.352941%,54.117647%,7.45098%);fill-opacity:1;" d="M 39.6875 73.917969 C 39.019531 73.917969 38.480469 73.378906 38.480469 72.710938 C 38.480469 65.699219 35.886719 59.710938 30.773438 54.914062 C 26.945312 51.320312 23.117188 49.804688 23.078125 49.789062 C 22.457031 49.546875 22.148438 48.847656 22.390625 48.226562 C 22.632812 47.605469 23.332031 47.296875 23.953125 47.539062 C 24.128906 47.609375 28.261719 49.246094 32.425781 53.152344 C 36.289062 56.777344 40.894531 63.109375 40.894531 72.710938 C 40.894531 73.378906 40.351562 73.917969 39.6875 73.917969 Z M 39.6875 73.917969 "/>
<path style=" stroke:none;fill-rule:nonzero;fill:rgb(77.254902%,90.980392%,40%);fill-opacity:1;" d="M 60.304688 54.691406 C 53.539062 59.371094 46.921875 56.148438 46.921875 56.148438 C 46.921875 56.148438 46.453125 48.671875 53.039062 44.117188 C 59.980469 39.320312 66.597656 42.542969 66.597656 42.542969 C 66.597656 42.542969 67.15625 49.957031 60.304688 54.691406 Z M 60.304688 54.691406 "/>
<path style=" stroke:none;fill-rule:nonzero;fill:rgb(69.803922%,85.098039%,29.411765%);fill-opacity:1;" d="M 66.597656 42.542969 C 66.597656 42.542969 63.148438 40.863281 58.617188 41.734375 C 60.269531 42.050781 61.285156 42.542969 61.285156 42.542969 C 61.285156 42.542969 61.84375 49.957031 54.992188 54.691406 C 53.160156 55.960938 51.335938 56.648438 49.652344 56.976562 C 52.207031 57.460938 56.230469 57.511719 60.304688 54.691406 C 67.15625 49.957031 66.597656 42.542969 66.597656 42.542969 Z M 66.597656 42.542969 "/>
<path style=" stroke:none;fill-rule:nonzero;fill:rgb(42.352941%,54.117647%,7.45098%);fill-opacity:1;" d="M 39.683594 73.917969 C 39.042969 73.917969 38.511719 73.414062 38.480469 72.769531 C 38.472656 72.589844 38.300781 68.386719 40.417969 63.1875 C 42.367188 58.40625 46.703125 51.84375 56.300781 47.730469 C 56.914062 47.46875 57.625 47.753906 57.886719 48.367188 C 58.148438 48.976562 57.867188 49.6875 57.253906 49.949219 C 50.152344 52.992188 45.242188 57.753906 42.65625 64.101562 C 40.738281 68.808594 40.890625 72.617188 40.890625 72.65625 C 40.921875 73.320312 40.410156 73.886719 39.742188 73.917969 C 39.722656 73.917969 39.703125 73.917969 39.683594 73.917969 Z M 39.683594 73.917969 "/>
<path style=" stroke:none;fill-rule:nonzero;fill:rgb(42.352941%,54.117647%,7.45098%);fill-opacity:1;" d="M 39.277344 40.527344 C 38.835938 40.527344 38.414062 40.289062 38.199219 39.867188 C 33.582031 30.792969 25.78125 22.875 25.703125 22.796875 C 25.234375 22.324219 25.234375 21.558594 25.710938 21.089844 C 26.183594 20.621094 26.945312 20.625 27.417969 21.097656 C 27.746094 21.429688 35.566406 29.363281 40.351562 38.773438 C 40.652344 39.367188 40.417969 40.09375 39.824219 40.398438 C 39.648438 40.488281 39.460938 40.527344 39.277344 40.527344 Z M 39.277344 40.527344 "/>
<path style=" stroke:none;fill-rule:nonzero;fill:rgb(42.352941%,54.117647%,7.45098%);fill-opacity:1;" d="M 40.066406 51.015625 C 39.832031 51.015625 39.597656 50.949219 39.390625 50.808594 C 38.839844 50.4375 38.691406 49.6875 39.066406 49.132812 C 39.398438 48.640625 47.320312 37.007812 56.960938 31.398438 C 57.539062 31.0625 58.277344 31.257812 58.613281 31.835938 C 58.949219 32.414062 58.753906 33.152344 58.175781 33.488281 C 49.007812 38.820312 41.144531 50.371094 41.066406 50.484375 C 40.832031 50.832031 40.453125 51.015625 40.066406 51.015625 Z M 40.066406 51.015625 "/>
</g>
</svg>
