<?xml version="1.0" encoding="UTF-8"?>
<svg xmlns="http://www.w3.org/2000/svg" xmlns:xlink="http://www.w3.org/1999/xlink" width="80px" height="80px" viewBox="0 0 80 80" version="1.1">
<defs>
<clipPath id="clip1">
  <rect x="0" y="0" width="80" height="80"/>
</clipPath>
<g id="surface5" clip-path="url(#clip1)">
<path style=" stroke:none;fill-rule:nonzero;fill:rgb(89.803922%,38.823529%,32.54902%);fill-opacity:1;" d="M 1.933594 37.066406 C 1.828125 37.378906 1.769531 37.699219 1.753906 38.023438 C 1.769531 32.632812 1.78125 27.246094 1.796875 21.855469 C 1.816406 21.53125 1.875 21.210938 1.976562 20.898438 C 3.476562 16.371094 13.726562 13.777344 30.089844 13.777344 C 47.253906 13.777344 60.171875 15.949219 68.472656 20.234375 C 68.914062 20.464844 69.335938 20.695312 69.738281 20.925781 C 70.753906 21.511719 71.652344 22.113281 72.441406 22.71875 C 72.425781 28.105469 72.410156 33.496094 72.394531 38.882812 C 71.605469 38.28125 70.707031 37.679688 69.691406 37.09375 C 69.289062 36.859375 68.867188 36.628906 68.425781 36.402344 C 60.125 32.113281 47.210938 29.945312 30.042969 29.945312 C 13.679688 29.945312 3.433594 32.539062 1.933594 37.066406 Z M 1.933594 37.066406 "/>
<path style=" stroke:none;fill-rule:nonzero;fill:rgb(83.529412%,83.921569%,85.882353%);fill-opacity:1;" d="M 41.242188 32.195312 C 41.222656 32.253906 41.210938 32.316406 41.210938 32.375 L 41.257812 16.207031 C 41.257812 16.148438 41.265625 16.089844 41.289062 16.027344 C 41.460938 15.527344 42.375 15.113281 43.25 15.171875 L 43.203125 31.339844 C 42.328125 31.277344 41.414062 31.695312 41.242188 32.195312 Z M 41.242188 32.195312 "/>
<path style=" stroke:none;fill-rule:nonzero;fill:rgb(83.529412%,83.921569%,85.882353%);fill-opacity:1;" d="M 19.167969 31.878906 C 16.882812 31.945312 14.617188 32.230469 12.488281 32.722656 C 12.503906 27.332031 12.519531 21.945312 12.535156 16.554688 C 14.660156 16.066406 16.929688 15.78125 19.214844 15.714844 C 20.480469 15.679688 21.746094 15.789062 23.003906 15.742188 C 23.761719 15.714844 24.6875 15.6875 25.238281 16.003906 C 25.386719 16.089844 25.507812 16.203125 25.589844 16.34375 C 25.652344 16.449219 25.679688 16.554688 25.679688 16.664062 L 25.632812 32.832031 C 25.632812 32.722656 25.605469 32.617188 25.546875 32.511719 C 25.460938 32.367188 25.339844 32.257812 25.191406 32.171875 C 24.640625 31.851562 23.714844 31.878906 22.957031 31.910156 C 21.699219 31.953125 20.433594 31.84375 19.167969 31.878906 Z M 19.167969 31.878906 "/>
<path style=" stroke:none;fill-rule:nonzero;fill:rgb(83.529412%,83.921569%,85.882353%);fill-opacity:1;" d="M 39.023438 31.746094 C 38.1875 31.261719 36.933594 31.003906 35.761719 31.125 L 35.804688 14.960938 C 36.976562 14.835938 38.230469 15.09375 39.070312 15.578125 C 39.472656 15.8125 39.78125 16.097656 39.933594 16.417969 C 40.019531 16.59375 40.0625 16.777344 40.0625 16.957031 L 40.015625 33.125 C 40.015625 32.941406 39.976562 32.761719 39.890625 32.582031 C 39.734375 32.261719 39.425781 31.976562 39.023438 31.746094 Z M 39.023438 31.746094 "/>
<path style=" stroke:none;fill-rule:nonzero;fill:rgb(83.529412%,83.921569%,85.882353%);fill-opacity:1;" d="M 32.542969 33.273438 C 32.539062 33.320312 32.535156 33.367188 32.535156 33.417969 L 32.582031 17.25 C 32.582031 17.203125 32.582031 17.152344 32.589844 17.105469 C 32.703125 16.085938 34.070312 15.140625 35.804688 14.960938 L 35.761719 31.125 C 34.023438 31.304688 32.65625 32.253906 32.542969 33.273438 Z M 32.542969 33.273438 "/>
<path style=" stroke:none;fill-rule:nonzero;fill:rgb(89.803922%,38.823529%,32.54902%);fill-opacity:1;" d="M 42.558594 18.257812 L 42.515625 34.425781 C 42.515625 34.101562 42.242188 33.769531 41.949219 33.476562 C 41.605469 33.132812 41.210938 32.761719 41.210938 32.375 L 41.257812 16.207031 C 41.257812 16.59375 41.648438 16.96875 41.996094 17.3125 C 42.289062 17.601562 42.5625 17.9375 42.558594 18.257812 Z M 42.558594 18.257812 "/>
<path style=" stroke:none;fill-rule:nonzero;fill:rgb(83.529412%,83.921569%,85.882353%);fill-opacity:1;" d="M 42.515625 34.425781 C 42.515625 34.492188 42.503906 34.558594 42.476562 34.621094 C 42.492188 29.234375 42.507812 23.84375 42.523438 18.457031 C 42.546875 18.390625 42.558594 18.324219 42.558594 18.257812 C 42.546875 23.109375 42.527344 29.574219 42.515625 34.425781 Z M 42.515625 34.425781 "/>
<path style=" stroke:none;fill-rule:nonzero;fill:rgb(83.529412%,83.921569%,85.882353%);fill-opacity:1;" d="M 41.371094 35.613281 C 41.34375 35.667969 41.332031 35.722656 41.332031 35.777344 L 41.378906 19.609375 C 41.378906 19.554688 41.390625 19.5 41.417969 19.445312 C 41.582031 19.117188 42.175781 18.925781 42.425781 18.613281 C 42.46875 18.5625 42.5 18.507812 42.523438 18.457031 C 42.507812 23.84375 42.492188 29.234375 42.476562 34.621094 C 42.453125 34.675781 42.421875 34.730469 42.382812 34.78125 C 42.128906 35.089844 41.539062 35.285156 41.371094 35.613281 Z M 41.371094 35.613281 "/>
<path style=" stroke:none;fill-rule:nonzero;fill:rgb(89.803922%,38.823529%,32.54902%);fill-opacity:1;" d="M 40.0625 16.957031 L 40.015625 33.121094 C 40.011719 34.867188 36.203125 36.558594 33.765625 35.152344 C 33.675781 35.097656 33.589844 35.042969 33.503906 34.984375 C 32.878906 34.546875 32.53125 33.984375 32.535156 33.417969 L 32.582031 17.25 C 32.578125 17.816406 32.925781 18.382812 33.546875 18.816406 C 33.632812 18.875 33.722656 18.933594 33.8125 18.984375 C 36.25 20.390625 40.054688 18.699219 40.0625 16.957031 Z M 40.0625 16.957031 "/>
<path style=" stroke:none;fill-rule:nonzero;fill:rgb(89.803922%,38.823529%,32.54902%);fill-opacity:1;" d="M 39.070312 15.578125 C 39.472656 15.8125 39.78125 16.097656 39.933594 16.417969 C 40.859375 18.316406 36.5 20.539062 33.8125 18.984375 C 33.722656 18.933594 33.632812 18.875 33.550781 18.816406 C 32.871094 18.34375 32.523438 17.71875 32.589844 17.105469 C 32.703125 16.085938 34.070312 15.140625 35.808594 14.960938 C 36.976562 14.835938 38.230469 15.09375 39.070312 15.578125 Z M 39.070312 15.578125 "/>
<path style=" stroke:none;fill-rule:nonzero;fill:rgb(83.529412%,83.921569%,85.882353%);fill-opacity:1;" d="M 64.609375 36.464844 C 63.0625 35.574219 54.929688 32.136719 43.203125 31.339844 L 43.25 15.171875 C 54.976562 15.972656 63.109375 19.40625 64.65625 20.296875 C 64.789062 20.375 64.875 20.433594 64.90625 20.46875 C 64.972656 20.539062 65 20.605469 65 20.671875 L 64.953125 36.839844 C 64.953125 36.773438 64.925781 36.707031 64.859375 36.636719 C 64.828125 36.601562 64.742188 36.542969 64.609375 36.464844 Z M 64.609375 36.464844 "/>
<path style=" stroke:none;fill-rule:nonzero;fill:rgb(83.529412%,83.921569%,85.882353%);fill-opacity:1;" d="M 31.257812 35.648438 C 31.273438 30.890625 31.285156 26.132812 31.296875 21.375 C 31.296875 21.375 31.296875 21.371094 31.300781 21.371094 C 31.285156 26.128906 31.273438 30.890625 31.257812 35.648438 Z M 31.257812 35.648438 "/>
<path style=" stroke:none;fill-rule:nonzero;fill:rgb(83.529412%,83.921569%,85.882353%);fill-opacity:1;" d="M 4.179688 37.066406 C 3.746094 37.691406 3.519531 38.378906 3.519531 39.058594 L 3.566406 22.890625 C 3.566406 22.210938 3.789062 21.527344 4.226562 20.898438 C 5.507812 19.050781 8.332031 17.675781 11.445312 16.828125 C 11.804688 16.730469 12.167969 16.640625 12.535156 16.554688 C 12.519531 21.945312 12.503906 27.332031 12.488281 32.722656 C 12.121094 32.804688 11.757812 32.898438 11.402344 32.996094 C 8.289062 33.84375 5.464844 35.214844 4.179688 37.066406 Z M 4.179688 37.066406 "/>
<path style=" stroke:none;fill-rule:nonzero;fill:rgb(89.803922%,38.823529%,32.54902%);fill-opacity:1;" d="M 25.679688 16.664062 L 25.632812 32.832031 C 25.632812 33.1875 25.328125 33.546875 24.894531 33.808594 C 24.332031 34.152344 23.574219 34.359375 22.839844 34.5625 C 21.988281 34.800781 21.128906 35.035156 20.273438 35.265625 C 19.148438 35.578125 18.019531 35.886719 16.890625 36.199219 C 14.652344 36.8125 12.378906 37.4375 10.539062 38.398438 C 8.757812 39.332031 7.410156 40.632812 7.40625 42.023438 L 7.453125 25.855469 C 7.457031 24.46875 8.804688 23.164062 10.585938 22.234375 C 12.425781 21.273438 14.699219 20.648438 16.9375 20.03125 C 18.066406 19.71875 19.195312 19.410156 20.320312 19.101562 C 21.175781 18.867188 22.03125 18.632812 22.886719 18.394531 C 23.617188 18.191406 24.378906 17.984375 24.941406 17.640625 C 25.371094 17.378906 25.675781 17.019531 25.679688 16.664062 Z M 25.679688 16.664062 "/>
<path style=" stroke:none;fill-rule:nonzero;fill:rgb(83.529412%,83.921569%,85.882353%);fill-opacity:1;" d="M 20.132812 36.714844 C 17.816406 37.648438 15.492188 38.582031 13.171875 39.511719 C 13.1875 34.121094 13.203125 28.734375 13.21875 23.34375 C 15.539062 22.414062 17.863281 21.484375 20.179688 20.550781 C 20.164062 25.9375 20.148438 31.328125 20.132812 36.714844 Z M 20.132812 36.714844 "/>
<path style=" stroke:none;fill-rule:nonzero;fill:rgb(83.529412%,83.921569%,85.882353%);fill-opacity:1;" d="M 13.171875 39.511719 C 12.113281 39.9375 10.953125 40.441406 10.953125 41.25 L 10.996094 25.082031 C 11 24.277344 12.15625 23.773438 13.21875 23.34375 C 13.203125 28.734375 13.1875 34.121094 13.171875 39.511719 Z M 13.171875 39.511719 "/>
<path style=" stroke:none;fill-rule:nonzero;fill:rgb(83.529412%,83.921569%,85.882353%);fill-opacity:1;" d="M 7.410156 42.15625 C 7.40625 42.113281 7.40625 42.066406 7.40625 42.023438 L 7.453125 25.855469 C 7.453125 25.902344 7.453125 25.945312 7.457031 25.988281 C 7.441406 31.378906 7.425781 36.769531 7.410156 42.15625 Z M 7.410156 42.15625 "/>
<path style=" stroke:none;fill-rule:nonzero;fill:rgb(83.529412%,83.921569%,85.882353%);fill-opacity:1;" d="M 7.414062 42.285156 C 7.417969 42.242188 7.414062 42.199219 7.410156 42.15625 C 7.425781 36.769531 7.441406 31.378906 7.457031 25.988281 C 7.460938 26.03125 7.460938 26.074219 7.460938 26.121094 C 7.449219 30.96875 7.429688 37.4375 7.414062 42.285156 Z M 7.414062 42.285156 "/>
<path style=" stroke:none;fill-rule:nonzero;fill:rgb(89.803922%,38.823529%,32.54902%);fill-opacity:1;" d="M 7.460938 26.121094 L 7.414062 42.285156 C 7.414062 42.460938 7.371094 42.636719 7.132812 42.730469 C 6.808594 42.851562 6.378906 42.714844 6.078125 42.566406 C 5.957031 42.507812 5.839844 42.441406 5.722656 42.375 C 4.234375 41.515625 3.515625 40.292969 3.519531 39.058594 L 3.566406 22.894531 C 3.5625 24.125 4.28125 25.351562 5.769531 26.210938 C 5.882812 26.277344 6.003906 26.339844 6.125 26.402344 C 6.421875 26.546875 6.855469 26.683594 7.175781 26.5625 C 7.414062 26.472656 7.460938 26.292969 7.460938 26.121094 Z M 7.460938 26.121094 "/>
<path style=" stroke:none;fill-rule:nonzero;fill:rgb(83.529412%,83.921569%,85.882353%);fill-opacity:1;" d="M 27.074219 35.5 C 24.261719 35.074219 22.148438 35.910156 20.132812 36.714844 C 20.148438 31.328125 20.164062 25.9375 20.179688 20.550781 C 22.195312 19.742188 24.304688 18.90625 27.117188 19.335938 C 27.101562 24.722656 27.089844 30.109375 27.074219 35.5 C 27.085938 31.320312 27.097656 27.144531 27.109375 22.96875 C 27.113281 21.757812 27.117188 20.546875 27.117188 19.335938 C 28.234375 19.503906 29.242188 19.835938 30.035156 20.292969 C 30.03125 20.921875 30.03125 21.554688 30.03125 22.183594 C 30.019531 26.941406 30.003906 31.699219 29.992188 36.457031 C 30.007812 31.066406 30.019531 25.679688 30.035156 20.292969 C 30.566406 20.597656 30.996094 20.960938 31.296875 21.371094 L 31.296875 21.375 C 31.296875 22.5 31.292969 23.625 31.289062 24.753906 C 31.285156 25.96875 31.28125 27.179688 31.277344 28.394531 C 31.269531 31.441406 31.261719 34.488281 31.253906 37.535156 C 31.269531 32.148438 31.285156 26.761719 31.300781 21.371094 C 31.683594 21.898438 31.84375 22.445312 31.839844 23.003906 L 31.796875 39.171875 C 31.796875 38.613281 31.640625 38.0625 31.253906 37.539062 C 30.953125 37.128906 30.519531 36.765625 29.992188 36.460938 C 29.199219 36 28.1875 35.671875 27.074219 35.5 Z M 27.074219 35.5 "/>
<path style=" stroke:none;fill-rule:nonzero;fill:rgb(89.803922%,38.823529%,32.54902%);fill-opacity:1;" d="M 31.839844 23.003906 L 31.796875 39.171875 C 31.792969 39.347656 31.777344 39.527344 31.746094 39.707031 C 31.6875 40.070312 31.65625 40.4375 31.65625 40.800781 L 31.703125 24.636719 C 31.703125 24.269531 31.734375 23.902344 31.792969 23.539062 C 31.824219 23.359375 31.839844 23.183594 31.839844 23.003906 Z M 31.839844 23.003906 "/>
<path style=" stroke:none;fill-rule:nonzero;fill:rgb(83.529412%,83.921569%,85.882353%);fill-opacity:1;" d="M 32.28125 43.757812 C 31.867188 42.789062 31.652344 41.796875 31.65625 40.800781 L 31.699219 24.636719 C 31.699219 25.628906 31.914062 26.621094 32.328125 27.589844 C 32.3125 32.980469 32.296875 38.367188 32.28125 43.757812 Z M 32.28125 43.757812 "/>
<path style=" stroke:none;fill-rule:nonzero;fill:rgb(83.529412%,83.921569%,85.882353%);fill-opacity:1;" d="M 32.589844 44.765625 C 32.53125 44.421875 32.425781 44.085938 32.28125 43.757812 C 32.296875 38.367188 32.3125 32.980469 32.328125 27.589844 C 32.472656 27.921875 32.578125 28.257812 32.636719 28.597656 C 32.660156 28.753906 32.671875 28.914062 32.671875 29.074219 L 32.628906 45.242188 C 32.628906 45.082031 32.613281 44.921875 32.589844 44.765625 Z M 32.589844 44.765625 "/>
<path style=" stroke:none;fill-rule:nonzero;fill:rgb(89.803922%,38.823529%,32.54902%);fill-opacity:1;" d="M 32.671875 29.074219 L 32.628906 45.242188 C 32.625 46.1875 32.152344 47.144531 31.042969 47.828125 C 29.191406 48.972656 26 49.0625 23.484375 48.46875 C 21.175781 47.921875 19.304688 46.914062 17.527344 45.890625 C 17.375 45.800781 17.222656 45.714844 17.070312 45.625 C 15.472656 44.703125 13.878906 43.777344 12.285156 42.851562 C 11.851562 42.605469 11.480469 42.316406 11.238281 41.988281 C 11.039062 41.714844 10.953125 41.472656 10.953125 41.25 L 10.996094 25.082031 C 10.996094 25.304688 11.085938 25.550781 11.285156 25.820312 C 11.523438 26.148438 11.898438 26.4375 12.328125 26.6875 C 13.925781 27.609375 15.519531 28.535156 17.117188 29.457031 C 17.265625 29.546875 17.417969 29.632812 17.574219 29.722656 C 19.347656 30.75 21.222656 31.757812 23.53125 32.300781 C 26.042969 32.894531 29.234375 32.804688 31.089844 31.660156 C 32.199219 30.976562 32.671875 30.019531 32.671875 29.074219 Z M 32.671875 29.074219 "/>
<path style=" stroke:none;fill-rule:nonzero;fill:rgb(83.529412%,83.921569%,85.882353%);fill-opacity:1;" d="M 1.746094 38.199219 L 1.792969 22.03125 C 1.789062 24.242188 3.742188 26.585938 6.917969 28.421875 C 8.765625 29.488281 11.03125 30.382812 13.839844 31.058594 L 13.792969 47.226562 C 10.984375 46.550781 8.71875 45.652344 6.871094 44.585938 C 3.695312 42.753906 1.742188 40.410156 1.746094 38.199219 Z M 1.746094 38.199219 "/>
<path style=" stroke:none;fill-rule:nonzero;fill:rgb(89.803922%,38.823529%,32.54902%);fill-opacity:1;" d="M 1.753906 38.023438 C 1.75 38.082031 1.746094 38.140625 1.746094 38.199219 L 1.792969 22.03125 C 1.792969 21.972656 1.796875 21.914062 1.796875 21.855469 C 1.78125 27.246094 1.769531 32.632812 1.753906 38.023438 Z M 1.753906 38.023438 "/>
<path style=" stroke:none;fill-rule:nonzero;fill:rgb(89.803922%,38.823529%,32.54902%);fill-opacity:1;" d="M 65 20.671875 L 64.953125 36.839844 C 64.953125 37.699219 59.710938 38.222656 58.703125 38.308594 C 56.945312 38.453125 55.101562 38.390625 53.496094 37.949219 C 52.578125 37.695312 51.765625 37.328125 50.867188 37.046875 C 49.121094 36.496094 47.050781 36.296875 45.09375 36.484375 C 44.296875 36.558594 43.488281 36.703125 42.691406 36.605469 C 42.347656 36.566406 42.011719 36.457031 41.761719 36.3125 C 41.503906 36.164062 41.332031 35.972656 41.332031 35.777344 L 41.378906 19.609375 C 41.378906 19.808594 41.546875 19.996094 41.804688 20.144531 C 42.058594 20.289062 42.394531 20.398438 42.738281 20.441406 C 43.53125 20.535156 44.339844 20.394531 45.140625 20.316406 C 47.097656 20.128906 49.167969 20.328125 50.914062 20.878906 C 51.8125 21.160156 52.621094 21.53125 53.539062 21.78125 C 55.148438 22.226562 56.992188 22.289062 58.75 22.140625 C 59.757812 22.058594 64.996094 21.535156 65 20.671875 Z M 65 20.671875 "/>
<path style=" stroke:none;fill-rule:nonzero;fill:rgb(89.803922%,38.823529%,32.54902%);fill-opacity:1;" d="M 64.65625 20.296875 C 64.789062 20.375 64.875 20.433594 64.90625 20.46875 C 65.816406 21.453125 59.835938 22.050781 58.75 22.140625 C 56.992188 22.289062 55.148438 22.226562 53.539062 21.78125 C 52.621094 21.53125 51.8125 21.160156 50.914062 20.878906 C 49.167969 20.328125 47.097656 20.128906 45.140625 20.316406 C 44.339844 20.394531 43.53125 20.535156 42.738281 20.441406 C 42.394531 20.398438 42.058594 20.289062 41.804688 20.144531 C 41.476562 19.953125 41.292969 19.703125 41.417969 19.445312 C 41.582031 19.117188 42.175781 18.925781 42.425781 18.613281 C 42.765625 18.199219 42.398438 17.710938 41.996094 17.3125 C 41.597656 16.914062 41.132812 16.480469 41.289062 16.027344 C 41.460938 15.527344 42.375 15.113281 43.25 15.171875 C 54.976562 15.972656 63.109375 19.40625 64.65625 20.296875 Z M 64.65625 20.296875 "/>
<path style=" stroke:none;fill-rule:nonzero;fill:rgb(83.529412%,83.921569%,85.882353%);fill-opacity:1;" d="M 36.320312 40.785156 C 35.976562 41.324219 35.816406 41.890625 35.8125 42.457031 L 35.859375 26.289062 C 35.859375 25.722656 36.023438 25.15625 36.367188 24.617188 C 36.351562 29.46875 37.679688 36.128906 36.320312 40.785156 Z M 36.320312 40.785156 "/>
<path style=" stroke:none;fill-rule:nonzero;fill:rgb(89.803922%,38.823529%,32.54902%);fill-opacity:1;" d="M 76.320312 42.972656 C 75.453125 41.664062 74.203125 40.265625 72.394531 38.882812 C 72.410156 33.496094 72.425781 28.105469 72.441406 22.714844 C 74.25 24.097656 75.5 25.5 76.367188 26.804688 C 76.351562 32.195312 76.335938 37.582031 76.320312 42.972656 Z M 76.320312 42.972656 "/>
<path style=" stroke:none;fill-rule:nonzero;fill:rgb(83.529412%,83.921569%,85.882353%);fill-opacity:1;" d="M 48.148438 37.652344 C 43.621094 36.671875 37.984375 38.164062 36.320312 40.785156 L 36.367188 24.617188 C 38.027344 22 43.667969 20.503906 48.191406 21.484375 C 50.484375 21.980469 52.421875 23 54.816406 23.277344 C 58.480469 23.699219 62.332031 22.285156 65.890625 22.949219 C 66.910156 23.136719 67.808594 23.488281 68.570312 23.929688 C 69.125 24.25 69.605469 24.617188 70.007812 25.003906 C 70.601562 25.582031 71.042969 26.203125 71.421875 26.839844 C 71.40625 32.230469 71.390625 37.617188 71.378906 43.007812 C 70.996094 42.371094 70.558594 41.75 69.960938 41.171875 C 69.5625 40.785156 69.082031 40.414062 68.523438 40.09375 C 67.761719 39.65625 66.863281 39.304688 65.84375 39.117188 C 62.289062 38.453125 58.433594 39.867188 54.773438 39.445312 C 52.375 39.167969 50.4375 38.144531 48.148438 37.652344 Z M 48.148438 37.652344 "/>
<path style=" stroke:none;fill-rule:nonzero;fill:rgb(89.803922%,38.823529%,32.54902%);fill-opacity:1;" d="M 25.238281 16.003906 C 25.386719 16.089844 25.507812 16.199219 25.589844 16.34375 C 25.847656 16.792969 25.503906 17.300781 24.941406 17.640625 C 24.378906 17.984375 23.617188 18.191406 22.886719 18.394531 C 22.03125 18.632812 21.175781 18.867188 20.320312 19.101562 C 19.195312 19.410156 18.066406 19.71875 16.9375 20.03125 C 14.699219 20.648438 12.425781 21.273438 10.585938 22.234375 C 8.746094 23.195312 7.371094 24.550781 7.457031 25.988281 C 7.472656 26.195312 7.476562 26.449219 7.175781 26.5625 C 6.855469 26.683594 6.421875 26.546875 6.125 26.402344 C 6.003906 26.339844 5.882812 26.277344 5.769531 26.210938 C 3.460938 24.875 3 22.660156 4.226562 20.898438 C 5.507812 19.050781 8.332031 17.675781 11.445312 16.828125 C 13.878906 16.171875 16.535156 15.792969 19.214844 15.714844 C 20.480469 15.675781 21.746094 15.785156 23.003906 15.742188 C 23.761719 15.714844 24.6875 15.6875 25.238281 16.003906 Z M 25.238281 16.003906 "/>
<path style=" stroke:none;fill-rule:nonzero;fill:rgb(83.529412%,83.921569%,85.882353%);fill-opacity:1;" d="M 71.375 43.007812 C 71.300781 42.734375 71.378906 42.351562 71.378906 42.070312 C 71.382812 41.046875 71.386719 40.019531 71.386719 38.996094 C 71.390625 37.65625 71.394531 36.320312 71.398438 34.984375 C 71.40625 32.269531 71.414062 29.554688 71.421875 26.839844 C 71.648438 27.222656 71.855469 27.605469 72.058594 27.988281 C 72.117188 28.101562 72.179688 28.214844 72.238281 28.328125 C 72.222656 33.71875 72.207031 39.105469 72.191406 44.496094 C 72.132812 44.382812 72.074219 44.269531 72.011719 44.15625 C 71.808594 43.773438 71.601562 43.386719 71.375 43.007812 Z M 71.375 43.007812 "/>
<path style=" stroke:none;fill-rule:nonzero;fill:rgb(83.529412%,83.921569%,85.882353%);fill-opacity:1;" d="M 72.191406 44.496094 C 72.167969 44.398438 72.191406 44.265625 72.191406 44.167969 C 72.195312 43.335938 72.199219 42.5 72.199219 41.667969 C 72.203125 40.722656 72.203125 39.78125 72.207031 38.839844 C 72.21875 35.335938 72.226562 31.832031 72.238281 28.328125 C 72.652344 29.121094 73.039062 29.933594 73.152344 30.746094 C 73.136719 36.136719 73.121094 41.523438 73.105469 46.914062 C 72.992188 46.097656 72.609375 45.285156 72.191406 44.496094 Z M 72.191406 44.496094 "/>
<path style=" stroke:none;fill-rule:nonzero;fill:rgb(83.529412%,83.921569%,85.882353%);fill-opacity:1;" d="M 73.105469 46.914062 C 73.097656 46.800781 73.105469 46.648438 73.105469 46.539062 C 73.105469 46.335938 73.105469 46.132812 73.105469 45.933594 C 73.105469 45.808594 73.109375 45.640625 73.109375 45.515625 C 73.109375 45.453125 73.109375 45.367188 73.109375 45.304688 C 73.109375 44.765625 73.113281 44.230469 73.113281 43.695312 C 73.125 39.378906 73.136719 35.0625 73.148438 30.746094 C 73.171875 30.90625 73.183594 31.066406 73.183594 31.226562 L 73.136719 47.394531 C 73.136719 47.234375 73.125 47.074219 73.105469 46.914062 Z M 73.105469 46.914062 "/>
<path style=" stroke:none;fill-rule:nonzero;fill:rgb(89.803922%,38.823529%,32.54902%);fill-opacity:1;" d="M 77.800781 46.0625 C 77.523438 45.152344 77.066406 44.097656 76.320312 42.972656 C 76.335938 37.582031 76.351562 32.195312 76.367188 26.804688 C 77.113281 27.929688 77.570312 28.984375 77.847656 29.898438 C 77.988281 30.347656 78.097656 30.867188 78.167969 31.4375 C 78.152344 36.828125 78.136719 42.214844 78.121094 47.605469 C 78.050781 47.035156 77.941406 46.515625 77.800781 46.0625 Z M 77.800781 46.0625 "/>
<path style=" stroke:none;fill-rule:nonzero;fill:rgb(89.803922%,38.823529%,32.54902%);fill-opacity:1;" d="M 30.035156 20.292969 C 30.566406 20.597656 30.996094 20.960938 31.296875 21.371094 C 31.808594 22.0625 31.917969 22.796875 31.792969 23.539062 C 31.566406 24.894531 31.761719 26.265625 32.328125 27.589844 C 32.472656 27.921875 32.578125 28.257812 32.636719 28.597656 C 32.8125 29.691406 32.382812 30.863281 31.089844 31.664062 C 29.234375 32.804688 26.042969 32.894531 23.53125 32.300781 C 21.222656 31.757812 19.347656 30.75 17.574219 29.722656 C 17.421875 29.636719 17.269531 29.546875 17.117188 29.457031 C 15.519531 28.535156 13.925781 27.609375 12.332031 26.6875 C 11.898438 26.4375 11.523438 26.148438 11.285156 25.820312 C 10.355469 24.558594 11.863281 23.890625 13.21875 23.34375 C 15.539062 22.414062 17.863281 21.484375 20.179688 20.550781 C 22.195312 19.742188 24.304688 18.90625 27.117188 19.335938 C 28.234375 19.503906 29.242188 19.835938 30.035156 20.292969 Z M 30.035156 20.292969 "/>
<path style=" stroke:none;fill-rule:nonzero;fill:rgb(89.803922%,38.823529%,32.54902%);fill-opacity:1;" d="M 78.121094 47.605469 C 78.113281 47.449219 78.125 47.292969 78.125 47.136719 C 78.125 46.980469 78.125 46.824219 78.125 46.667969 C 78.140625 41.59375 78.15625 36.515625 78.167969 31.4375 C 78.234375 31.945312 78.265625 32.492188 78.265625 33.066406 L 78.21875 49.234375 C 78.222656 48.65625 78.1875 48.109375 78.121094 47.605469 Z M 78.121094 47.605469 "/>
<path style=" stroke:none;fill-rule:nonzero;fill:rgb(83.529412%,83.921569%,85.882353%);fill-opacity:1;" d="M 23.675781 37.039062 L 23.632812 53.207031 C 21.964844 51.65625 20.183594 50.457031 18.582031 49.53125 C 16.035156 48.058594 13.933594 47.28125 13.792969 47.226562 L 13.839844 31.058594 C 13.980469 31.113281 16.082031 31.890625 18.628906 33.363281 C 20.230469 34.289062 22.011719 35.488281 23.675781 37.039062 Z M 23.675781 37.039062 "/>
<path style=" stroke:none;fill-rule:nonzero;fill:rgb(89.803922%,38.823529%,32.54902%);fill-opacity:1;" d="M 73.183594 31.226562 L 73.136719 47.390625 C 73.136719 47.632812 73.109375 47.871094 73.046875 48.109375 C 72.828125 48.972656 72.042969 49.851562 70.820312 50.367188 C 69.394531 50.972656 68.734375 50.863281 67.882812 50.371094 C 67.675781 50.253906 67.457031 50.109375 67.214844 49.949219 C 67.015625 49.820312 66.8125 49.695312 66.597656 49.570312 C 64.328125 48.257812 61.269531 47.410156 58.066406 47.273438 C 52.601562 47.039062 46.949219 48.734375 41.796875 47.636719 C 40.628906 47.390625 39.589844 46.988281 38.71875 46.484375 C 36.898438 45.433594 35.808594 43.941406 35.8125 42.457031 L 35.859375 26.289062 C 35.855469 27.773438 36.945312 29.265625 38.765625 30.316406 C 39.636719 30.820312 40.675781 31.222656 41.84375 31.46875 C 46.992188 32.566406 52.648438 30.871094 58.109375 31.105469 C 61.316406 31.246094 64.375 32.09375 66.644531 33.40625 C 66.859375 33.527344 67.0625 33.652344 67.261719 33.785156 C 67.503906 33.945312 67.722656 34.085938 67.929688 34.207031 C 68.78125 34.695312 69.441406 34.808594 70.863281 34.203125 C 72.089844 33.683594 72.871094 32.804688 73.09375 31.945312 C 73.15625 31.703125 73.183594 31.464844 73.183594 31.226562 Z M 73.183594 31.226562 "/>
<path style=" stroke:none;fill-rule:nonzero;fill:rgb(89.803922%,38.823529%,32.54902%);fill-opacity:1;" d="M 68.570312 23.929688 C 69.125 24.25 69.605469 24.617188 70.007812 25.003906 C 70.957031 25.925781 71.515625 26.964844 72.058594 27.988281 C 72.746094 29.273438 73.433594 30.613281 73.09375 31.945312 C 72.871094 32.804688 72.089844 33.683594 70.863281 34.203125 C 69.441406 34.808594 68.78125 34.695312 67.929688 34.207031 C 67.722656 34.085938 67.503906 33.945312 67.261719 33.785156 C 67.0625 33.652344 66.859375 33.527344 66.644531 33.40625 C 64.375 32.09375 61.316406 31.246094 58.109375 31.109375 C 52.648438 30.875 46.992188 32.566406 41.84375 31.472656 C 40.675781 31.222656 39.636719 30.820312 38.765625 30.316406 C 36.25 28.867188 35.128906 26.566406 36.367188 24.617188 C 38.027344 22 43.667969 20.503906 48.191406 21.484375 C 50.484375 21.980469 52.421875 23 54.820312 23.277344 C 58.480469 23.699219 62.332031 22.285156 65.890625 22.949219 C 66.910156 23.136719 67.808594 23.488281 68.570312 23.929688 Z M 68.570312 23.929688 "/>
<path style=" stroke:none;fill-rule:nonzero;fill:rgb(83.529412%,83.921569%,85.882353%);fill-opacity:1;" d="M 69.96875 53.089844 C 69.949219 53.070312 69.929688 53.050781 69.910156 53.03125 C 69.925781 47.644531 69.941406 42.253906 69.957031 36.867188 C 69.976562 36.882812 69.996094 36.902344 70.015625 36.921875 C 70 42.3125 69.984375 47.699219 69.96875 53.089844 Z M 69.96875 53.089844 "/>
<path style=" stroke:none;fill-rule:nonzero;fill:rgb(83.529412%,83.921569%,85.882353%);fill-opacity:1;" d="M 35.507812 48.382812 C 31.671875 48.449219 28.808594 50.769531 28.847656 52.992188 L 28.894531 36.824219 C 28.855469 34.605469 31.714844 32.28125 35.554688 32.21875 C 39.929688 32.144531 43.074219 34.761719 47.328125 35.375 C 50.242188 35.792969 52.941406 35.105469 55.042969 33.976562 C 56.601562 33.140625 58 32.355469 60.261719 33.070312 L 60.21875 49.238281 C 57.953125 48.519531 56.558594 49.304688 54.996094 50.144531 C 52.898438 51.273438 50.195312 51.960938 47.28125 51.542969 C 43.027344 50.929688 39.886719 48.3125 35.507812 48.382812 Z M 35.507812 48.382812 "/>
<path style=" stroke:none;fill-rule:nonzero;fill:rgb(83.529412%,83.921569%,85.882353%);fill-opacity:1;" d="M 69.96875 53.089844 C 69.984375 47.699219 70 42.3125 70.015625 36.921875 C 70.214844 37.109375 70.363281 37.308594 70.472656 37.515625 C 70.457031 42.90625 70.441406 48.296875 70.425781 53.683594 C 70.316406 53.476562 70.167969 53.273438 69.96875 53.089844 Z M 69.96875 53.089844 "/>
<path style=" stroke:none;fill-rule:nonzero;fill:rgb(83.529412%,83.921569%,85.882353%);fill-opacity:1;" d="M 70.453125 53.738281 C 70.445312 53.71875 70.433594 53.703125 70.425781 53.683594 C 70.441406 48.292969 70.457031 42.90625 70.472656 37.515625 C 70.480469 37.535156 70.488281 37.554688 70.496094 37.570312 C 70.484375 42.960938 70.46875 48.347656 70.453125 53.738281 Z M 70.453125 53.738281 "/>
<path style=" stroke:none;fill-rule:nonzero;fill:rgb(83.529412%,83.921569%,85.882353%);fill-opacity:1;" d="M 65.894531 52.347656 C 64.207031 52.644531 63.148438 53.394531 62.507812 54.277344 C 62.523438 48.886719 62.539062 43.496094 62.554688 38.109375 C 63.195312 37.226562 64.253906 36.476562 65.941406 36.179688 C 67.238281 35.953125 68.613281 36.035156 69.542969 36.570312 C 69.691406 36.65625 69.832031 36.753906 69.953125 36.867188 C 69.953125 36.867188 69.953125 36.867188 69.957031 36.867188 C 69.941406 42.253906 69.925781 47.644531 69.910156 53.03125 C 69.785156 52.921875 69.648438 52.824219 69.5 52.738281 C 68.566406 52.199219 67.191406 52.121094 65.894531 52.347656 Z M 65.894531 52.347656 "/>
<path style=" stroke:none;fill-rule:nonzero;fill:rgb(83.529412%,83.921569%,85.882353%);fill-opacity:1;" d="M 62.480469 54.316406 C 62.496094 48.925781 62.507812 43.539062 62.523438 38.148438 C 62.535156 38.136719 62.542969 38.121094 62.554688 38.109375 C 62.539062 43.496094 62.523438 48.886719 62.507812 54.277344 C 62.496094 54.289062 62.488281 54.300781 62.480469 54.316406 Z M 62.480469 54.316406 "/>
<path style=" stroke:none;fill-rule:nonzero;fill:rgb(83.529412%,83.921569%,85.882353%);fill-opacity:1;" d="M 70.453125 53.738281 C 70.441406 53.695312 70.453125 53.632812 70.453125 53.589844 C 70.453125 53.542969 70.453125 53.480469 70.453125 53.433594 C 70.453125 53.320312 70.453125 53.210938 70.453125 53.101562 C 70.453125 52.890625 70.457031 52.679688 70.457031 52.464844 C 70.46875 47.5 70.484375 42.539062 70.5 37.570312 C 70.601562 37.785156 70.660156 38.007812 70.683594 38.238281 C 70.667969 43.625 70.652344 49.015625 70.636719 54.40625 C 70.613281 54.175781 70.554688 53.953125 70.453125 53.738281 Z M 70.453125 53.738281 "/>
<path style=" stroke:none;fill-rule:nonzero;fill:rgb(83.529412%,83.921569%,85.882353%);fill-opacity:1;" d="M 70.644531 54.542969 C 70.644531 54.496094 70.640625 54.449219 70.636719 54.40625 C 70.652344 49.015625 70.667969 43.625 70.683594 38.238281 C 70.6875 38.285156 70.6875 38.332031 70.691406 38.378906 C 70.675781 43.765625 70.660156 49.15625 70.644531 54.542969 Z M 70.644531 54.542969 "/>
<path style=" stroke:none;fill-rule:nonzero;fill:rgb(83.529412%,83.921569%,85.882353%);fill-opacity:1;" d="M 70.644531 54.542969 C 70.636719 54.042969 70.648438 53.539062 70.648438 53.035156 C 70.652344 52.535156 70.652344 52.03125 70.652344 51.53125 C 70.667969 47.144531 70.679688 42.761719 70.691406 38.375 C 70.691406 38.40625 70.691406 38.4375 70.691406 38.464844 L 70.648438 54.632812 C 70.648438 54.601562 70.644531 54.574219 70.644531 54.542969 Z M 70.644531 54.542969 "/>
<path style=" stroke:none;fill-rule:nonzero;fill:rgb(83.529412%,83.921569%,85.882353%);fill-opacity:1;" d="M 62.480469 54.316406 C 62.289062 54.585938 62.136719 54.863281 62.019531 55.148438 C 62.035156 49.757812 62.046875 44.371094 62.0625 38.980469 C 62.183594 38.699219 62.335938 38.417969 62.523438 38.148438 C 62.511719 43.132812 62.496094 48.113281 62.480469 53.09375 C 62.480469 53.300781 62.480469 53.503906 62.480469 53.707031 C 62.480469 53.730469 62.480469 53.761719 62.480469 53.785156 C 62.480469 53.808594 62.480469 53.839844 62.480469 53.863281 C 62.480469 53.992188 62.480469 54.117188 62.480469 54.246094 C 62.480469 54.265625 62.484375 54.296875 62.480469 54.316406 Z M 62.480469 54.316406 "/>
<path style=" stroke:none;fill-rule:nonzero;fill:rgb(83.529412%,83.921569%,85.882353%);fill-opacity:1;" d="M 61.765625 55.9375 C 61.671875 56.367188 61.621094 56.800781 61.621094 57.234375 L 61.667969 41.066406 C 61.667969 40.636719 61.714844 40.203125 61.8125 39.773438 C 61.871094 39.511719 61.953125 39.246094 62.0625 38.980469 C 62.046875 44.371094 62.035156 49.757812 62.019531 55.148438 C 61.90625 55.410156 61.824219 55.679688 61.765625 55.9375 Z M 61.765625 55.9375 "/>
<path style=" stroke:none;fill-rule:nonzero;fill:rgb(89.803922%,38.823529%,32.54902%);fill-opacity:1;" d="M 56.117188 58.566406 L 56.164062 42.398438 C 56.167969 40.976562 56.894531 39.558594 57.621094 38.183594 C 58.503906 36.5 59.648438 34.789062 60.261719 33.070312 L 60.21875 49.238281 C 59.605469 50.957031 58.457031 52.667969 57.574219 54.351562 C 56.847656 55.722656 56.121094 57.144531 56.117188 58.566406 Z M 56.117188 58.566406 "/>
<path style=" stroke:none;fill-rule:nonzero;fill:rgb(83.529412%,83.921569%,85.882353%);fill-opacity:1;" d="M 56.230469 59.515625 C 56.152344 59.199219 56.117188 58.882812 56.117188 58.566406 L 56.164062 42.398438 C 56.160156 42.714844 56.195312 43.03125 56.273438 43.347656 C 56.257812 48.738281 56.246094 54.125 56.230469 59.515625 Z M 56.230469 59.515625 "/>
<path style=" stroke:none;fill-rule:nonzero;fill:rgb(83.529412%,83.921569%,85.882353%);fill-opacity:1;" d="M 56.972656 62.226562 C 56.976562 61.359375 56.449219 60.398438 56.230469 59.515625 C 56.246094 54.125 56.257812 48.738281 56.273438 43.347656 C 56.496094 44.230469 57.019531 45.191406 57.019531 46.058594 C 57.003906 50.910156 56.988281 57.375 56.972656 62.226562 Z M 56.972656 62.226562 "/>
<path style=" stroke:none;fill-rule:nonzero;fill:rgb(89.803922%,38.823529%,32.54902%);fill-opacity:1;" d="M 57.019531 46.058594 L 56.972656 62.226562 C 56.972656 62.753906 56.773438 63.25 56.1875 63.675781 C 54.839844 64.660156 52.25 64.585938 50.132812 64.300781 C 44.21875 63.5 38.703125 61.722656 34.402344 59.238281 C 34.183594 59.113281 33.96875 58.984375 33.757812 58.855469 C 31.109375 57.242188 28.882812 55.214844 28.847656 52.992188 L 28.894531 36.824219 C 28.929688 39.046875 31.15625 41.074219 33.804688 42.691406 C 34.015625 42.820312 34.230469 42.945312 34.449219 43.074219 C 38.75 45.554688 44.265625 47.332031 50.179688 48.132812 C 52.292969 48.417969 54.886719 48.492188 56.234375 47.507812 C 56.820312 47.085938 57.015625 46.589844 57.019531 46.058594 Z M 57.019531 46.058594 "/>
<path style=" stroke:none;fill-rule:nonzero;fill:rgb(89.803922%,38.823529%,32.54902%);fill-opacity:1;" d="M 70.691406 38.464844 L 70.648438 54.632812 C 70.644531 56.070312 69.320312 57.6875 68.125 58.664062 C 67.21875 59.402344 64.351562 61.59375 62.878906 60.746094 C 62.648438 60.613281 62.449219 60.402344 62.300781 60.097656 C 61.847656 59.167969 61.621094 58.199219 61.621094 57.234375 L 61.667969 41.070312 C 61.664062 42.035156 61.894531 43 62.347656 43.929688 C 62.496094 44.234375 62.695312 44.445312 62.925781 44.578125 C 64.394531 45.425781 67.265625 43.234375 68.171875 42.496094 C 69.367188 41.519531 70.6875 39.902344 70.691406 38.464844 Z M 70.691406 38.464844 "/>
<path style=" stroke:none;fill-rule:nonzero;fill:rgb(83.529412%,83.921569%,85.882353%);fill-opacity:1;" d="M 72.226562 45.203125 L 72.179688 61.367188 C 68.613281 64.128906 63.582031 65.730469 57.222656 66.132812 C 56.273438 66.195312 55.316406 66.222656 54.378906 66.222656 C 45.355469 66.222656 38.089844 63.421875 32.890625 60.421875 C 26.933594 56.984375 23.691406 53.277344 23.632812 53.207031 L 23.675781 37.039062 C 23.738281 37.109375 26.980469 40.816406 32.9375 44.253906 C 38.136719 47.257812 45.402344 50.054688 54.421875 50.054688 C 55.363281 50.058594 56.320312 50.027344 57.269531 49.964844 C 63.625 49.566406 68.660156 47.960938 72.226562 45.203125 Z M 72.226562 45.203125 "/>
<path style=" stroke:none;fill-rule:nonzero;fill:rgb(83.529412%,83.921569%,85.882353%);fill-opacity:1;" d="M 78.265625 33.066406 L 78.21875 49.234375 C 78.207031 52.921875 76.734375 57.84375 72.179688 61.367188 L 72.226562 45.203125 C 76.777344 41.679688 78.253906 36.753906 78.265625 33.066406 Z M 78.265625 33.066406 "/>
<path style=" stroke:none;fill-rule:nonzero;fill:rgb(89.803922%,38.823529%,32.54902%);fill-opacity:1;" d="M 69.542969 36.570312 C 69.691406 36.65625 69.832031 36.753906 69.953125 36.867188 C 71.777344 38.488281 69.847656 41.125 68.171875 42.496094 C 67.265625 43.234375 64.394531 45.425781 62.925781 44.578125 C 62.695312 44.445312 62.496094 44.234375 62.347656 43.929688 C 61.691406 42.582031 61.503906 41.160156 61.8125 39.773438 C 62.144531 38.289062 63.242188 36.65625 65.941406 36.179688 C 67.238281 35.953125 68.613281 36.035156 69.542969 36.570312 Z M 69.542969 36.570312 "/>
<path style=" stroke:none;fill-rule:nonzero;fill:rgb(89.803922%,38.823529%,32.54902%);fill-opacity:1;" d="M 60.261719 33.070312 C 59.648438 34.789062 58.503906 36.5 57.621094 38.183594 C 56.734375 39.863281 55.84375 41.609375 56.273438 43.347656 C 56.628906 44.769531 57.777344 46.386719 56.234375 47.507812 C 54.886719 48.492188 52.292969 48.417969 50.179688 48.132812 C 44.265625 47.332031 38.75 45.554688 34.449219 43.074219 C 34.230469 42.945312 34.015625 42.820312 33.804688 42.691406 C 31.15625 41.074219 28.929688 39.046875 28.894531 36.824219 C 28.855469 34.601562 31.714844 32.28125 35.554688 32.214844 C 39.929688 32.144531 43.074219 34.761719 47.328125 35.375 C 50.242188 35.792969 52.941406 35.105469 55.042969 33.976562 C 56.605469 33.140625 58 32.355469 60.261719 33.070312 Z M 60.261719 33.070312 "/>
<path style=" stroke:none;fill-rule:nonzero;fill:rgb(100%,100%,100%);fill-opacity:1;" d="M 72.226562 45.203125 C 68.660156 47.960938 63.625 49.566406 57.269531 49.964844 C 56.320312 50.027344 55.363281 50.058594 54.421875 50.054688 C 45.402344 50.054688 38.136719 47.257812 32.9375 44.253906 C 26.980469 40.816406 23.738281 37.109375 23.675781 37.039062 C 22.011719 35.488281 20.230469 34.289062 18.628906 33.363281 C 16.082031 31.890625 13.980469 31.113281 13.839844 31.058594 C 11.03125 30.382812 8.765625 29.488281 6.917969 28.421875 C 3.191406 26.269531 1.144531 23.414062 1.976562 20.898438 C 3.476562 16.371094 13.726562 13.777344 30.089844 13.777344 C 47.253906 13.777344 60.171875 15.949219 68.472656 20.234375 C 68.914062 20.464844 69.335938 20.695312 69.738281 20.925781 C 75.085938 24.011719 77.105469 27.46875 77.847656 29.898438 C 78.894531 33.320312 78.292969 40.503906 72.226562 45.203125 Z M 36.367188 24.617188 C 35.128906 26.5625 36.25 28.867188 38.765625 30.316406 C 39.636719 30.820312 40.675781 31.222656 41.84375 31.46875 C 46.992188 32.566406 52.648438 30.871094 58.109375 31.105469 C 61.316406 31.246094 64.375 32.09375 66.644531 33.40625 C 66.855469 33.527344 67.0625 33.652344 67.261719 33.785156 C 67.503906 33.945312 67.722656 34.085938 67.929688 34.207031 C 68.78125 34.695312 69.441406 34.808594 70.863281 34.203125 C 72.089844 33.683594 72.871094 32.804688 73.09375 31.945312 C 73.433594 30.613281 72.742188 29.273438 72.058594 27.988281 C 71.511719 26.964844 70.957031 25.925781 70.007812 25.003906 C 69.605469 24.617188 69.125 24.25 68.570312 23.929688 C 67.808594 23.488281 66.90625 23.136719 65.890625 22.949219 C 62.332031 22.285156 58.480469 23.699219 54.816406 23.277344 C 52.421875 23 50.480469 21.980469 48.191406 21.484375 C 43.667969 20.503906 38.027344 22 36.367188 24.617188 M 50.179688 48.132812 C 52.292969 48.417969 54.886719 48.492188 56.234375 47.507812 C 57.777344 46.386719 56.628906 44.769531 56.273438 43.347656 C 55.84375 41.609375 56.734375 39.863281 57.621094 38.183594 C 58.503906 36.5 59.648438 34.789062 60.261719 33.070312 C 58 32.355469 56.605469 33.140625 55.042969 33.976562 C 52.945312 35.105469 50.242188 35.792969 47.328125 35.375 C 43.074219 34.761719 39.929688 32.144531 35.554688 32.214844 C 31.714844 32.28125 28.855469 34.601562 28.894531 36.824219 C 28.929688 39.046875 31.15625 41.074219 33.804688 42.691406 C 34.015625 42.820312 34.230469 42.945312 34.449219 43.074219 C 38.75 45.554688 44.265625 47.332031 50.179688 48.132812 M 23.53125 32.300781 C 26.042969 32.894531 29.234375 32.804688 31.089844 31.664062 C 32.382812 30.863281 32.8125 29.691406 32.636719 28.597656 C 32.578125 28.257812 32.472656 27.921875 32.328125 27.589844 C 31.761719 26.265625 31.566406 24.894531 31.792969 23.539062 C 31.917969 22.796875 31.808594 22.0625 31.296875 21.371094 C 30.996094 20.960938 30.566406 20.597656 30.035156 20.292969 C 29.242188 19.835938 28.234375 19.503906 27.117188 19.335938 C 24.304688 18.90625 22.195312 19.742188 20.179688 20.550781 C 17.859375 21.484375 15.539062 22.414062 13.214844 23.34375 C 11.863281 23.890625 10.355469 24.558594 11.285156 25.824219 C 11.523438 26.148438 11.898438 26.4375 12.328125 26.6875 C 13.921875 27.613281 15.519531 28.535156 17.117188 29.457031 C 17.265625 29.546875 17.417969 29.636719 17.574219 29.722656 C 19.347656 30.75 21.222656 31.757812 23.53125 32.300781 M 43.25 15.171875 C 42.375 15.113281 41.460938 15.527344 41.289062 16.027344 C 41.132812 16.480469 41.597656 16.914062 41.996094 17.3125 C 42.398438 17.710938 42.765625 18.199219 42.425781 18.613281 C 42.175781 18.925781 41.582031 19.117188 41.417969 19.445312 C 41.292969 19.703125 41.476562 19.953125 41.804688 20.144531 C 42.058594 20.289062 42.394531 20.398438 42.738281 20.441406 C 43.53125 20.535156 44.339844 20.394531 45.140625 20.316406 C 47.097656 20.128906 49.167969 20.328125 50.914062 20.878906 C 51.808594 21.160156 52.621094 21.53125 53.539062 21.78125 C 55.144531 22.226562 56.992188 22.289062 58.75 22.140625 C 59.832031 22.050781 65.8125 21.453125 64.90625 20.46875 C 64.875 20.433594 64.789062 20.375 64.65625 20.296875 C 63.109375 19.40625 54.976562 15.972656 43.25 15.171875 M 7.175781 26.5625 C 7.476562 26.449219 7.472656 26.195312 7.457031 25.992188 C 7.371094 24.550781 8.746094 23.195312 10.585938 22.234375 C 12.425781 21.273438 14.699219 20.648438 16.9375 20.03125 C 18.066406 19.71875 19.195312 19.410156 20.320312 19.101562 C 21.175781 18.867188 22.03125 18.632812 22.886719 18.394531 C 23.617188 18.191406 24.378906 17.984375 24.941406 17.640625 C 25.503906 17.300781 25.847656 16.792969 25.589844 16.34375 C 25.507812 16.199219 25.386719 16.089844 25.238281 16.003906 C 24.6875 15.6875 23.761719 15.714844 23.003906 15.742188 C 21.746094 15.785156 20.480469 15.675781 19.214844 15.714844 C 16.535156 15.792969 13.878906 16.171875 11.445312 16.828125 C 8.332031 17.675781 5.507812 19.050781 4.226562 20.898438 C 3 22.660156 3.460938 24.875 5.769531 26.210938 C 5.882812 26.277344 6.003906 26.339844 6.125 26.402344 C 6.421875 26.546875 6.855469 26.683594 7.175781 26.5625 M 62.925781 44.578125 C 64.394531 45.425781 67.265625 43.234375 68.171875 42.496094 C 69.847656 41.125 71.777344 38.488281 69.953125 36.867188 C 69.832031 36.753906 69.691406 36.65625 69.542969 36.570312 C 68.613281 36.035156 67.238281 35.953125 65.941406 36.183594 C 63.242188 36.65625 62.144531 38.289062 61.8125 39.773438 C 61.503906 41.160156 61.691406 42.582031 62.347656 43.929688 C 62.496094 44.234375 62.695312 44.445312 62.925781 44.578125 M 35.804688 14.960938 C 34.070312 15.140625 32.703125 16.085938 32.589844 17.105469 C 32.523438 17.71875 32.871094 18.34375 33.546875 18.816406 C 33.632812 18.875 33.722656 18.933594 33.8125 18.984375 C 36.5 20.539062 40.859375 18.316406 39.933594 16.417969 C 39.78125 16.097656 39.472656 15.8125 39.070312 15.578125 C 38.230469 15.09375 36.976562 14.835938 35.804688 14.960938 "/>
<path style=" stroke:none;fill-rule:nonzero;fill:rgb(81.960784%,32.156863%,25.490196%);fill-opacity:1;" d="M 57.488281 50.402344 C 46.4375 51.101562 37.734375 47.882812 31.726562 44.414062 C 25.464844 40.796875 22.304688 37.105469 22.136719 36.914062 C 20.640625 35.527344 18.945312 34.386719 17.425781 33.507812 C 14.953125 32.082031 13.035156 31.378906 12.933594 31.339844 C 10.234375 30.707031 7.765625 29.738281 5.730469 28.5625 C 2.273438 26.566406 0.0390625 24.558594 0.046875 22.035156 L 0 38.199219 C -0.0078125 40.722656 2.203125 43.308594 5.660156 45.300781 C 7.695312 46.476562 10.164062 47.449219 12.863281 48.082031 C 12.964844 48.121094 14.882812 48.824219 17.355469 50.25 C 18.875 51.128906 20.570312 52.269531 22.066406 53.652344 C 22.234375 53.847656 25.398438 57.539062 31.65625 61.152344 C 37.664062 64.621094 46.367188 67.839844 57.417969 67.140625 C 75.984375 65.964844 79.9375 55.523438 79.953125 49.238281 L 80 33.070312 C 79.980469 39.355469 76.054688 49.222656 57.488281 50.402344 Z M 57.488281 50.402344 "/>
<path style=" stroke:none;fill-rule:nonzero;fill:rgb(89.803922%,38.823529%,32.54902%);fill-opacity:1;" d="M 79.570312 29.71875 C 81.007812 34.421875 80.035156 49.542969 57.464844 50.976562 C 46.414062 51.675781 37.710938 48.457031 31.703125 44.988281 C 25.441406 41.371094 22.28125 37.679688 22.113281 37.488281 C 20.613281 36.101562 18.921875 34.960938 17.398438 34.085938 C 14.929688 32.65625 13.011719 31.953125 12.910156 31.917969 C 10.207031 31.28125 7.742188 30.3125 5.707031 29.136719 C -4.246094 23.390625 -3.882812 12.765625 30.085938 12.761719 C 51.894531 12.761719 64.101562 16.242188 70.96875 20.207031 C 76.984375 23.683594 78.898438 27.527344 79.570312 29.71875 Z M 57.269531 49.964844 C 63.625 49.566406 68.660156 47.960938 72.226562 45.203125 C 78.292969 40.503906 78.894531 33.320312 77.847656 29.898438 C 77.105469 27.464844 75.085938 24.011719 69.738281 20.925781 C 69.335938 20.695312 68.914062 20.464844 68.472656 20.234375 C 60.171875 15.949219 47.253906 13.777344 30.089844 13.777344 C 13.726562 13.777344 3.476562 16.371094 1.976562 20.898438 C 1.144531 23.414062 3.191406 26.269531 6.917969 28.417969 C 8.765625 29.488281 11.027344 30.382812 13.558594 30.976562 C 13.980469 31.113281 16.082031 31.890625 18.628906 33.363281 C 20.230469 34.289062 22.011719 35.488281 23.589844 36.953125 C 23.738281 37.109375 26.980469 40.816406 32.9375 44.253906 C 38.136719 47.257812 45.402344 50.054688 54.421875 50.054688 C 55.363281 50.058594 56.320312 50.027344 57.269531 49.964844 "/>
</g>
</defs>
<g id="surface1">
<use xlink:href="#surface5"/>
</g>
</svg>
