<?xml version="1.0" encoding="UTF-8"?>
<svg xmlns="http://www.w3.org/2000/svg" xmlns:xlink="http://www.w3.org/1999/xlink" width="80px" height="80px" viewBox="0 0 80 80" version="1.1">
<g id="surface1">
<path style=" stroke:none;fill-rule:nonzero;fill:rgb(100%,64.313725%,14.901961%);fill-opacity:1;" d="M 58.75 43.75 C 58.75 54.105469 50.355469 62.5 40 62.5 C 29.644531 62.5 21.25 54.105469 21.25 43.75 C 21.25 33.394531 29.644531 25 40 25 C 50.355469 25 58.75 33.394531 58.75 43.75 Z M 58.75 43.75 "/>
<path style=" stroke:none;fill-rule:nonzero;fill:rgb(99.607843%,50.980392%,1.960784%);fill-opacity:1;" d="M 26.25 43.75 C 26.253906 34.367188 33.199219 26.433594 42.5 25.1875 C 35.238281 24.152344 28.039062 27.445312 24.078125 33.617188 C 20.113281 39.789062 20.113281 47.707031 24.078125 53.878906 C 28.039062 60.050781 35.238281 63.347656 42.5 62.3125 C 33.199219 61.066406 26.257812 53.132812 26.25 43.75 Z M 26.25 43.75 "/>
<path style=" stroke:none;fill-rule:nonzero;fill:rgb(100%,76.078431%,27.843137%);fill-opacity:1;" d="M 40 25 C 39.164062 25.007812 38.328125 25.070312 37.5 25.1875 C 46.796875 26.433594 53.738281 34.367188 53.738281 43.75 C 53.738281 53.128906 46.796875 61.0625 37.5 62.3125 C 44.4375 63.253906 51.324219 60.253906 55.351562 54.527344 C 59.382812 48.800781 59.886719 41.308594 56.65625 35.09375 C 53.425781 28.882812 47 24.988281 40 25 Z M 40 25 "/>
<path style=" stroke:none;fill-rule:nonzero;fill:rgb(64.705882%,90.980392%,52.941176%);fill-opacity:1;" d="M 47.191406 18.550781 C 49.125 16.625 52.617188 10 50.6875 8.0625 C 48.753906 6.128906 42.125 9.625 40.199219 11.558594 C 38.296875 13.496094 38.308594 16.601562 40.230469 18.519531 C 42.148438 20.441406 45.253906 20.453125 47.191406 18.550781 Z M 47.191406 18.550781 "/>
<path style=" stroke:none;fill-rule:nonzero;fill:rgb(52.54902%,78.823529%,51.372549%);fill-opacity:1;" d="M 47.191406 14.800781 C 46.019531 15.96875 44.339844 16.476562 42.71875 16.148438 C 41.097656 15.824219 39.746094 14.707031 39.121094 13.175781 C 38.222656 15.355469 38.988281 17.867188 40.949219 19.171875 C 42.914062 20.480469 45.523438 20.21875 47.191406 18.550781 C 49.058594 16.683594 52.378906 10.425781 50.839844 8.277344 C 50.078125 10.675781 48.835938 12.894531 47.191406 14.800781 Z M 47.191406 14.800781 "/>
<path style=" stroke:none;fill-rule:nonzero;fill:rgb(59.607843%,72.941176%,36.078431%);fill-opacity:1;" d="M 48.382812 12.132812 L 46.617188 10.367188 L 37.5 19.484375 C 35.152344 17.25 31.988281 16.082031 28.75 16.25 L 28.75 18.75 C 38.589844 18.75 38.75 28.34375 38.75 28.75 L 38.75 30 L 41.25 30 L 41.25 28.75 C 41.140625 26.175781 40.386719 23.664062 39.0625 21.453125 Z M 48.382812 12.132812 "/>
<path style=" stroke:none;fill-rule:nonzero;fill:rgb(96.078431%,89.019608%,65.490196%);fill-opacity:1;" d="M 40 57.5 C 32.410156 57.492188 26.257812 51.339844 26.25 43.75 L 28.75 43.75 C 28.757812 49.960938 33.789062 54.992188 40 55 Z M 40 57.5 "/>
<path style=" stroke:none;fill-rule:nonzero;fill:rgb(96.078431%,89.019608%,65.490196%);fill-opacity:1;" d="M 26.25 38.75 L 28.75 38.75 L 28.75 41.25 L 26.25 41.25 Z M 26.25 38.75 "/>
<path style=" stroke:none;fill-rule:nonzero;fill:rgb(96.078431%,89.019608%,65.490196%);fill-opacity:1;" d="M 47.5 33.75 L 50 33.75 L 50 36.25 L 47.5 36.25 Z M 47.5 33.75 "/>
<path style=" stroke:none;fill-rule:nonzero;fill:rgb(96.078431%,89.019608%,65.490196%);fill-opacity:1;" d="M 52.5 38.75 L 55 38.75 L 55 41.25 L 52.5 41.25 Z M 52.5 38.75 "/>
<path style=" stroke:none;fill-rule:nonzero;fill:rgb(96.078431%,89.019608%,65.490196%);fill-opacity:1;" d="M 47.5 38.75 L 50 38.75 L 50 41.25 L 47.5 41.25 Z M 47.5 38.75 "/>
<path style=" stroke:none;fill-rule:nonzero;fill:rgb(64.705882%,90.980392%,52.941176%);fill-opacity:1;" d="M 16.25 37.5 C 18.382812 37.621094 20.488281 38.03125 22.511719 38.710938 C 24.613281 39.351562 26.25 40 26.25 40 L 24.425781 40.914062 L 21.25 42.5 L 23.75 46.25 L 16.25 43.75 L 8.75 46.25 L 11.25 42.5 L 8.074219 40.914062 L 6.25 40 C 6.25 40 12.101562 37.664062 15.875 37.511719 C 16 37.5 16.125 37.5 16.25 37.5 Z M 16.25 37.5 "/>
<path style=" stroke:none;fill-rule:nonzero;fill:rgb(100%,27.843137%,35.294118%);fill-opacity:1;" d="M 31.25 51.25 C 31.25 52.742188 30.953125 54.222656 30.375 55.601562 L 25 56.25 C 21.546875 56.25 18.75 59.046875 18.75 62.5 L 12.5 62.5 C 7.164062 62.492188 2.5625 58.738281 1.492188 53.507812 C 0.421875 48.28125 3.171875 43.019531 8.074219 40.914062 L 11.25 42.5 L 8.75 46.25 L 16.25 43.75 L 23.75 46.25 L 21.25 42.5 L 24.425781 40.914062 C 28.566406 42.679688 31.25 46.75 31.25 51.25 Z M 31.25 51.25 "/>
<path style=" stroke:none;fill-rule:nonzero;fill:rgb(94.117647%,18.823529%,28.627451%);fill-opacity:1;" d="M 24.425781 43.414062 C 28.167969 45.019531 30.75 48.53125 31.164062 52.585938 C 31.789062 47.625 29.035156 42.851562 24.425781 40.914062 L 21.25 42.5 L 22.5 44.375 Z M 24.425781 43.414062 "/>
<path style=" stroke:none;fill-rule:nonzero;fill:rgb(94.117647%,18.823529%,28.627451%);fill-opacity:1;" d="M 8.75 48.75 L 16.25 46.25 L 23.75 48.75 L 21.609375 45.535156 L 16.25 43.75 L 10.890625 45.535156 Z M 8.75 48.75 "/>
<path style=" stroke:none;fill-rule:nonzero;fill:rgb(94.117647%,18.823529%,28.627451%);fill-opacity:1;" d="M 4.550781 45.800781 C 5.5625 44.785156 6.757812 43.976562 8.074219 43.414062 L 10 44.375 L 11.25 42.5 L 8.074219 40.914062 C 3.503906 42.851562 0.753906 47.566406 1.324219 52.5 C 1.601562 49.964844 2.742188 47.601562 4.550781 45.800781 Z M 4.550781 45.800781 "/>
<path style=" stroke:none;fill-rule:nonzero;fill:rgb(100%,76.078431%,27.843137%);fill-opacity:1;" d="M 66.25 62.5 C 66.242188 67.539062 62.496094 71.785156 57.5 72.425781 C 57.085938 72.476562 56.667969 72.5 56.25 72.5 C 55.832031 72.503906 55.414062 72.472656 55 72.414062 C 54.644531 72.375 54.296875 72.3125 53.949219 72.226562 L 47.5 71.449219 L 45 71.148438 L 31.25 69.5 L 25 68.75 C 21.546875 68.75 18.75 65.953125 18.75 62.5 C 18.75 59.046875 21.546875 56.25 25 56.25 L 30.375 55.601562 L 36.25 54.898438 L 38.75 54.601562 L 50 53.25 L 56.25 52.5 C 58.683594 52.5 61.035156 53.386719 62.863281 55 C 63.277344 55.363281 63.65625 55.757812 64 56.1875 C 64.382812 56.648438 64.714844 57.148438 65 57.675781 C 65.824219 59.148438 66.253906 60.8125 66.25 62.5 Z M 66.25 62.5 "/>
<path style=" stroke:none;fill-rule:nonzero;fill:rgb(64.705882%,90.980392%,52.941176%);fill-opacity:1;" d="M 78.75 60 L 78.75 65 L 70 65 L 75 67.5 L 73.75 71.25 L 64 68.8125 C 65.457031 67.03125 66.25 64.800781 66.25 62.5 C 66.253906 60.8125 65.824219 59.148438 65 57.675781 C 64.714844 57.148438 64.382812 56.648438 64 56.1875 L 73.75 53.75 L 75 57.5 L 70 60 Z M 78.75 60 "/>
<path style=" stroke:none;fill-rule:nonzero;fill:rgb(100%,58.431373%,0%);fill-opacity:1;" d="M 28.75 69.199219 L 28.75 62.5 L 31.25 62.5 L 31.25 69.5 Z M 28.75 69.199219 "/>
<path style=" stroke:none;fill-rule:nonzero;fill:rgb(100%,58.431373%,0%);fill-opacity:1;" d="M 38.75 54.601562 L 38.75 61.25 L 36.25 61.25 L 36.25 54.898438 Z M 38.75 54.601562 "/>
<path style=" stroke:none;fill-rule:nonzero;fill:rgb(100%,58.431373%,0%);fill-opacity:1;" d="M 47.5 63.75 L 47.5 71.449219 L 45 71.148438 L 45 63.75 Z M 47.5 63.75 "/>
<path style=" stroke:none;fill-rule:nonzero;fill:rgb(100%,58.431373%,0%);fill-opacity:1;" d="M 52.5 52.949219 L 52.5 60 L 50 60 L 50 53.25 Z M 52.5 52.949219 "/>
<path style=" stroke:none;fill-rule:nonzero;fill:rgb(100%,58.431373%,0%);fill-opacity:1;" d="M 55 72.414062 L 55 67.5 L 57.5 67.5 L 57.5 72.425781 Z M 55 72.414062 "/>
<path style=" stroke:none;fill-rule:nonzero;fill:rgb(100%,58.431373%,0%);fill-opacity:1;" d="M 36.25 63.75 L 38.75 63.75 L 38.75 66.25 L 36.25 66.25 Z M 36.25 63.75 "/>
<path style=" stroke:none;fill-rule:nonzero;fill:rgb(100%,58.431373%,0%);fill-opacity:1;" d="M 55 62.5 L 57.5 62.5 L 57.5 65 L 55 65 Z M 55 62.5 "/>
<path style=" stroke:none;fill-rule:nonzero;fill:rgb(59.607843%,72.941176%,36.078431%);fill-opacity:1;" d="M 15 41.25 C 14.976562 40.074219 14.859375 38.898438 14.644531 37.742188 C 14.480469 36.148438 13.863281 34.636719 12.867188 33.382812 L 14.632812 31.617188 C 16.015625 33.214844 16.875 35.199219 17.109375 37.296875 C 17.347656 38.601562 17.480469 39.925781 17.5 41.25 Z M 15 41.25 "/>
<path style=" stroke:none;fill-rule:nonzero;fill:rgb(100%,64.313725%,14.901961%);fill-opacity:1;" d="M 66.25 62.5 C 66.242188 67.539062 62.496094 71.785156 57.5 72.425781 C 57.085938 72.476562 56.667969 72.5 56.25 72.5 C 55.832031 72.503906 55.414062 72.472656 55 72.414062 C 54.644531 72.375 54.296875 72.3125 53.949219 72.226562 L 47.5 71.449219 L 45 71.148438 L 31.25 69.5 L 25 68.75 C 23.003906 68.769531 21.117188 67.828125 19.941406 66.214844 C 18.761719 64.601562 18.433594 62.519531 19.0625 60.625 C 19.882812 63.21875 22.28125 64.988281 25 65 L 31.25 65.75 L 45 67.398438 L 47.5 67.699219 L 53.949219 68.476562 C 54.296875 68.5625 54.644531 68.625 55 68.664062 C 55.414062 68.722656 55.832031 68.753906 56.25 68.75 C 56.667969 68.75 57.085938 68.726562 57.5 68.675781 C 60.050781 68.355469 62.382812 67.0625 64 65.0625 C 65.035156 63.785156 65.742188 62.273438 66.0625 60.664062 C 66.183594 61.269531 66.246094 61.882812 66.25 62.5 Z M 66.25 62.5 "/>
<path style=" stroke:none;fill-rule:nonzero;fill:rgb(99.607843%,50.980392%,1.960784%);fill-opacity:1;" d="M 31.25 65.75 L 31.25 69.5 L 28.75 69.199219 L 28.75 65.449219 Z M 31.25 65.75 "/>
<path style=" stroke:none;fill-rule:nonzero;fill:rgb(100%,58.431373%,0%);fill-opacity:1;" d="M 38.75 54.601562 L 38.75 61.25 L 36.25 61.25 L 36.25 54.898438 Z M 38.75 54.601562 "/>
<path style=" stroke:none;fill-rule:nonzero;fill:rgb(99.607843%,50.980392%,1.960784%);fill-opacity:1;" d="M 47.5 67.699219 L 47.5 71.449219 L 45 71.148438 L 45 67.398438 Z M 47.5 67.699219 "/>
<path style=" stroke:none;fill-rule:nonzero;fill:rgb(100%,58.431373%,0%);fill-opacity:1;" d="M 52.5 52.949219 L 52.5 60 L 50 60 L 50 53.25 Z M 52.5 52.949219 "/>
<path style=" stroke:none;fill-rule:nonzero;fill:rgb(99.607843%,50.980392%,1.960784%);fill-opacity:1;" d="M 57.5 68.675781 L 57.5 72.425781 L 55 72.414062 L 55 68.664062 C 55.414062 68.722656 55.832031 68.753906 56.25 68.75 C 56.667969 68.75 57.085938 68.726562 57.5 68.675781 Z M 57.5 68.675781 "/>
<path style=" stroke:none;fill-rule:nonzero;fill:rgb(100%,58.431373%,0%);fill-opacity:1;" d="M 36.25 63.75 L 38.75 63.75 L 38.75 66.25 L 36.25 66.25 Z M 36.25 63.75 "/>
<path style=" stroke:none;fill-rule:nonzero;fill:rgb(100%,58.431373%,0%);fill-opacity:1;" d="M 55 62.5 L 57.5 62.5 L 57.5 65 L 55 65 Z M 55 62.5 "/>
<path style=" stroke:none;fill-rule:nonzero;fill:rgb(59.607843%,72.941176%,36.078431%);fill-opacity:1;" d="M 61.664062 50.335938 C 60.105469 50.582031 58.578125 50.964844 57.085938 51.476562 C 56.113281 51.800781 55.175781 52.222656 54.289062 52.738281 L 51.25 53.101562 L 45.425781 53.800781 L 43.75 52.125 L 47.335938 48.539062 C 50.023438 45.851562 50.914062 39.585938 50.914062 39.585938 C 51.664062 40.335938 52.5625 40.917969 53.550781 41.300781 C 53.519531 43.003906 54.1875 44.648438 55.398438 45.851562 C 56.214844 46.671875 57.246094 47.25 58.375 47.511719 L 58.375 47.523438 C 58.890625 47.652344 59.417969 47.710938 59.949219 47.699219 C 60.332031 48.6875 60.914062 49.585938 61.664062 50.335938 Z M 61.664062 50.335938 "/>
<path style=" stroke:none;fill-rule:nonzero;fill:rgb(47.843137%,61.960784%,31.764706%);fill-opacity:1;" d="M 59.949219 47.699219 C 59.417969 47.710938 58.890625 47.652344 58.375 47.523438 L 58.375 47.511719 C 58.230469 47.480469 58.089844 47.425781 57.949219 47.386719 C 56.726562 47.625 55.519531 47.949219 54.335938 48.355469 C 53.363281 48.679688 52.425781 49.101562 51.539062 49.617188 L 48.5 49.980469 L 45.546875 50.335938 C 44.238281 51.636719 43.75 52.125 43.75 52.125 L 45.425781 53.800781 L 51.25 53.101562 L 54.289062 52.738281 C 55.175781 52.222656 56.113281 51.800781 57.085938 51.476562 C 58.578125 50.964844 60.105469 50.582031 61.664062 50.335938 C 60.914062 49.585938 60.332031 48.6875 59.949219 47.699219 Z M 59.949219 47.699219 "/>
<path style=" stroke:none;fill-rule:nonzero;fill:rgb(64.705882%,90.980392%,52.941176%);fill-opacity:1;" d="M 76.898438 33.3125 C 79.363281 35.792969 79.363281 39.796875 76.898438 42.273438 C 76.234375 42.933594 75.425781 43.4375 74.539062 43.738281 C 75.171875 47.582031 72.792969 51.28125 69.03125 52.304688 C 65.273438 53.324219 61.347656 51.335938 59.949219 47.699219 C 59.417969 47.710938 58.890625 47.652344 58.375 47.523438 L 58.375 47.511719 C 57.246094 47.25 56.214844 46.671875 55.398438 45.851562 C 54.1875 44.648438 53.519531 43.003906 53.550781 41.300781 C 51.148438 40.375 49.378906 38.300781 48.847656 35.785156 C 48.316406 33.269531 49.09375 30.652344 50.914062 28.835938 C 50.976562 28.773438 51.039062 28.710938 51.113281 28.648438 C 52.828125 27.046875 55.195312 26.328125 57.511719 26.710938 C 57.8125 25.824219 58.316406 25.015625 58.976562 24.351562 C 61.453125 21.886719 65.457031 21.886719 67.9375 24.351562 C 68.0625 24.476562 68.148438 24.625 68.261719 24.75 C 70.617188 23.804688 73.304688 24.355469 75.097656 26.152344 C 76.894531 27.945312 77.445312 30.632812 76.5 32.988281 C 76.625 33.101562 76.773438 33.1875 76.898438 33.3125 Z M 76.898438 33.3125 "/>
<path style=" stroke:none;fill-rule:nonzero;fill:rgb(52.54902%,78.823529%,51.372549%);fill-opacity:1;" d="M 76.898438 33.3125 C 76.773438 33.1875 76.625 33.101562 76.5 32.988281 C 77.445312 30.632812 76.894531 27.945312 75.097656 26.152344 C 73.304688 24.355469 70.617188 23.804688 68.261719 24.75 C 68.148438 24.625 68.0625 24.476562 67.9375 24.351562 C 65.96875 22.40625 62.964844 21.960938 60.519531 23.253906 C 61.085938 23.539062 61.605469 23.910156 62.0625 24.351562 C 62.1875 24.476562 62.273438 24.625 62.386719 24.75 C 64.742188 23.804688 67.429688 24.355469 69.222656 26.152344 C 71.019531 27.945312 71.570312 30.632812 70.625 32.988281 C 70.75 33.101562 70.898438 33.1875 71.023438 33.3125 C 73.488281 35.792969 73.488281 39.796875 71.023438 42.273438 C 70.359375 42.933594 69.550781 43.4375 68.664062 43.738281 C 69.238281 47.207031 67.347656 50.613281 64.105469 51.964844 C 66.648438 53.035156 69.578125 52.640625 71.746094 50.929688 C 73.917969 49.21875 74.984375 46.464844 74.539062 43.738281 C 75.425781 43.4375 76.234375 42.933594 76.898438 42.273438 C 79.363281 39.796875 79.363281 35.792969 76.898438 33.3125 Z M 76.898438 33.3125 "/>
</g>
</svg>
